# Blender v2.93.0 OBJ File: 'Low-Poly_Training-Dummy.blend'
# www.blender.org
mtllib Low-Poly_Training-Dummy.mtl
o Cylinder.001
v -1.358067 2.271947 -0.091299
v 1.308303 2.271947 -0.091299
v -1.358067 2.213261 -0.069939
v 1.308303 2.213261 -0.069939
v -1.358067 2.182035 -0.015854
v 1.308303 2.182035 -0.015854
v -1.358067 2.192879 0.045650
v 1.308303 2.192880 0.045650
v -1.358067 2.240721 0.085793
v 1.308303 2.240721 0.085793
v -1.358067 2.303173 0.085793
v 1.308303 2.303174 0.085793
v -1.358067 2.351015 0.045650
v 1.308303 2.351015 0.045650
v -1.358067 2.361860 -0.015854
v 1.308303 2.361860 -0.015854
v -1.358067 2.330633 -0.069939
v 1.308303 2.330633 -0.069939
v 0.126721 3.477517 -0.151020
v 0.219488 3.333198 -0.261575
v 0.253442 3.136055 -0.302041
v 0.219488 2.938911 -0.261575
v 0.126721 2.794593 -0.151020
v 0.194148 3.477517 -0.034234
v 0.336275 3.333198 -0.059294
v 0.388296 3.136055 -0.068467
v 0.336275 2.938912 -0.059294
v 0.194148 2.794593 -0.034234
v 0.170731 3.477517 0.098572
v 0.295715 3.333198 0.170731
v 0.341462 3.136055 0.197143
v 0.295715 2.938912 0.170731
v 0.170731 2.794593 0.098572
v 0.067427 3.477517 0.185254
v 0.116787 3.333198 0.320869
v 0.134854 3.136055 0.370508
v 0.116787 2.938911 0.320869
v 0.067427 2.794593 0.185254
v 0.000000 3.530341 0.000000
v -0.067427 3.477517 0.185254
v -0.116787 3.333198 0.320869
v -0.134854 3.136055 0.370508
v -0.116787 2.938911 0.320869
v -0.067427 2.794593 0.185254
v -0.170731 3.477517 0.098572
v -0.295715 3.333198 0.170731
v -0.341462 3.136055 0.197143
v -0.295715 2.938912 0.170731
v -0.170731 2.794593 0.098572
v -0.194148 3.477517 -0.034234
v -0.336275 3.333198 -0.059294
v -0.388296 3.136055 -0.068467
v -0.336274 2.938912 -0.059294
v -0.194148 2.794593 -0.034233
v -0.126721 3.477517 -0.151020
v -0.219488 3.333198 -0.261575
v -0.253442 3.136055 -0.302041
v -0.219488 2.938912 -0.261575
v -0.126721 2.794593 -0.151020
v 0.000000 2.741768 0.000000
v 0.000000 3.477517 -0.197143
v 0.000000 3.333198 -0.341462
v 0.000000 3.136055 -0.394286
v 0.000000 2.938911 -0.341462
v 0.000000 2.794593 -0.197143
v 0.202968 2.638456 -0.201694
v 0.351551 2.391871 -0.349344
v 0.405936 2.055030 -0.403388
v 0.351551 1.718189 -0.349344
v 0.202968 1.471604 -0.201694
v 0.310965 2.638456 -0.045720
v 0.538607 2.391871 -0.079190
v 0.621929 2.055030 -0.091441
v 0.538607 1.718189 -0.079190
v 0.310965 1.471604 -0.045720
v 0.273458 2.638456 0.131646
v 0.473643 2.391871 0.228018
v 0.546916 2.055030 0.263293
v 0.473643 1.718189 0.228018
v 0.273458 1.471604 0.131646
v 0.107997 2.638456 0.247414
v 0.187056 2.391871 0.428534
v 0.215994 2.055030 0.494828
v 0.187056 1.718189 0.428534
v 0.107997 1.471604 0.247414
v 0.000000 2.695338 0.000000
v -0.107997 2.638456 0.247414
v -0.187056 2.391871 0.428534
v -0.215994 2.055030 0.494828
v -0.187056 1.718189 0.428534
v -0.107997 1.471604 0.247414
v -0.273458 2.638456 0.131646
v -0.473642 2.391871 0.228018
v -0.546915 2.055030 0.263293
v -0.473642 1.718189 0.228018
v -0.273458 1.471604 0.131646
v -0.310964 2.638456 -0.045720
v -0.538606 2.391871 -0.079190
v -0.621929 2.055030 -0.091440
v -0.538606 1.718189 -0.079190
v -0.310964 1.471604 -0.045720
v -0.202968 2.638456 -0.201694
v -0.351550 2.391871 -0.349344
v -0.405935 2.055030 -0.403387
v -0.351550 1.718189 -0.349344
v -0.202968 1.471604 -0.201694
v 0.000000 1.414722 0.000000
v 0.000000 2.638456 -0.263292
v 0.000000 2.391871 -0.456036
v 0.000000 2.055030 -0.526585
v 0.000000 1.718189 -0.456036
v 0.000000 1.471604 -0.263292
v 0.000000 0.017954 -0.091299
v 0.000000 3.387456 -0.091299
v 0.058686 0.017954 -0.069939
v 0.058686 3.387456 -0.069939
v 0.089913 0.017954 -0.015854
v 0.089912 3.387456 -0.015854
v 0.079068 0.017954 0.045650
v 0.079068 3.387456 0.045650
v 0.031226 0.017954 0.085793
v 0.031226 3.387456 0.085793
v -0.031226 0.017954 0.085793
v -0.031226 3.387456 0.085793
v -0.079068 0.017954 0.045650
v -0.079067 3.387456 0.045650
v -0.089912 0.017954 -0.015854
v -0.089912 3.387456 -0.015854
v -0.058686 0.017954 -0.069939
v -0.058686 3.387456 -0.069939
vt 0.274146 0.458172
vt 0.274146 0.671248
vt 0.269321 0.671660
vt 0.269321 0.458584
vt 0.596985 0.400366
vt 0.596985 0.619573
vt 0.592497 0.619573
vt 0.592498 0.400366
vt 0.587456 0.619573
vt 0.587456 0.400366
vt 0.584219 0.619573
vt 0.584219 0.400366
vt 0.722892 0.269719
vt 0.722892 0.442471
vt 0.717757 0.442471
vt 0.717757 0.269719
vt 0.596985 0.060386
vt 0.596985 0.279593
vt 0.593748 0.279593
vt 0.593748 0.060386
vt 0.588707 0.279593
vt 0.588707 0.060386
vt 0.588584 0.890611
vt 0.584170 0.888004
vt 0.582427 0.883182
vt 0.584170 0.878403
vt 0.588584 0.875902
vt 0.593604 0.876849
vt 0.596881 0.880802
vt 0.596881 0.885911
vt 0.593604 0.889785
vt 0.584219 0.279593
vt 0.584219 0.060386
vt 0.278970 0.458584
vt 0.278970 0.671660
vt 0.915416 0.066550
vt 0.914363 0.071575
vt 0.910742 0.074855
vt 0.906247 0.074855
vt 0.902981 0.071575
vt 0.902472 0.066550
vt 0.904959 0.062131
vt 0.909278 0.060386
vt 0.913408 0.062131
vt 0.918599 0.607524
vt 0.917579 0.591316
vt 0.939614 0.591316
vt 0.937682 0.607524
vt 0.918599 0.575109
vt 0.921386 0.563244
vt 0.932403 0.563244
vt 0.937682 0.575109
vt 0.921386 0.619388
vt 0.932403 0.619388
vt 0.859466 0.307657
vt 0.871934 0.297196
vt 0.869066 0.313201
vt 0.920037 0.776341
vt 0.917210 0.792369
vt 0.907609 0.786826
vt 0.898487 0.794638
vt 0.891919 0.776596
vt 0.903817 0.776409
vt 0.759430 0.801858
vt 0.743740 0.807367
vt 0.735765 0.794740
vt 0.750222 0.787278
vt 0.879984 0.311277
vt 0.771147 0.790058
vt 0.763172 0.777431
vt 0.866860 0.325007
vt 0.885769 0.321675
vt 0.771147 0.767838
vt 0.752920 0.761198
vt 0.765228 0.758466
vt 0.725513 0.778507
vt 0.738384 0.768534
vt 0.887109 0.302786
vt 0.907609 0.765992
vt 0.723676 0.797818
vt 0.717757 0.788446
vt 0.898487 0.758554
vt 0.915117 0.748955
vt 0.917210 0.760450
vt 0.717781 0.766263
vt 0.729455 0.754396
vt 0.887109 0.291700
vt 0.745188 0.748955
vt 0.898112 0.306968
vt 0.898112 0.287766
vt 0.447132 0.886342
vt 0.452700 0.902003
vt 0.439919 0.910105
vt 0.432374 0.895699
vt 0.879984 0.283207
vt 0.928128 0.762375
vt 0.435344 0.874626
vt 0.422563 0.882729
vt 0.885769 0.273055
vt 0.934027 0.752290
vt 0.869066 0.281280
vt 0.935255 0.770868
vt 0.413659 0.907564
vt 0.406355 0.893004
vt 0.443176 0.922089
vt 0.433819 0.928021
vt 0.423711 0.920381
vt 0.413114 0.874671
vt 0.403757 0.880603
vt 0.935255 0.781953
vt 0.063111 0.924716
vt 0.060386 0.908172
vt 0.078017 0.906741
vt 0.078380 0.923476
vt 0.866860 0.269719
vt 0.859466 0.286822
vt 0.850231 0.279317
vt 0.072396 0.938083
vt 0.081211 0.937367
vt 0.411660 0.928021
vt 0.399743 0.916386
vt 0.928128 0.790444
vt 0.100128 0.908172
vt 0.097528 0.924716
vt 0.855674 0.297239
vt 0.843664 0.297360
vt 0.092267 0.938083
vt 0.080220 0.891644
vt 0.099369 0.892883
vt 0.902602 0.607524
vt 0.899107 0.591316
vt 0.850231 0.315404
vt 0.934027 0.800906
vt 0.915117 0.804239
vt 0.902602 0.575109
vt 0.091809 0.533829
vt 0.090447 0.506136
vt 0.125265 0.506136
vt 0.121962 0.533829
vt 0.091809 0.478444
vt 0.095531 0.458172
vt 0.112939 0.458172
vt 0.121962 0.478444
vt 0.095531 0.554101
vt 0.112939 0.554101
vt 0.774301 0.104666
vt 0.752583 0.104666
vt 0.769237 0.087980
vt 0.755143 0.587844
vt 0.772998 0.600209
vt 0.759335 0.611044
vt 0.762627 0.628182
vt 0.735615 0.628182
vt 0.743740 0.611044
vt 0.142127 0.478444
vt 0.148548 0.506136
vt 0.756416 0.079101
vt 0.142127 0.533829
vt 0.781700 0.075765
vt 0.759493 0.060386
vt 0.407433 0.554101
vt 0.401804 0.533829
vt 0.427583 0.533829
vt 0.422317 0.554101
vt 0.399743 0.506136
vt 0.401804 0.478444
vt 0.427583 0.478444
vt 0.429511 0.506136
vt 0.741836 0.082185
vt 0.733509 0.600209
vt 0.407433 0.458172
vt 0.422317 0.458172
vt 0.717895 0.609414
vt 0.717757 0.580661
vt 0.733430 0.583608
vt 0.447532 0.478444
vt 0.452546 0.506136
vt 0.732320 0.095788
vt 0.447532 0.533829
vt 0.734240 0.065727
vt 0.717757 0.089288
vt 0.072108 0.742948
vt 0.060407 0.717309
vt 0.080208 0.703329
vt 0.094971 0.726804
vt 0.732320 0.113545
vt 0.743539 0.569009
vt 0.092353 0.762552
vt 0.112153 0.748572
vt 0.060386 0.692508
vt 0.071818 0.684436
vt 0.115718 0.770871
vt 0.127149 0.762800
vt 0.741836 0.127148
vt 0.759107 0.563244
vt 0.122057 0.707679
vt 0.135610 0.732009
vt 0.085361 0.674874
vt 0.103665 0.686766
vt 0.140692 0.753237
vt 0.772849 0.569009
vt 0.403683 0.731235
vt 0.399743 0.703042
vt 0.422807 0.700787
vt 0.423657 0.729283
vt 0.734240 0.143605
vt 0.756416 0.130231
vt 0.759493 0.148946
vt 0.417231 0.753853
vt 0.428763 0.752725
vt 0.119803 0.675371
vt 0.140692 0.694521
vt 0.778335 0.583608
vt 0.453700 0.703042
vt 0.450411 0.731235
vt 0.769237 0.121353
vt 0.781700 0.133568
vt 0.444209 0.753853
vt 0.426440 0.674874
vt 0.453195 0.676826
vt 0.065776 0.533829
vt 0.060386 0.506136
vt 0.065776 0.478444
vt 0.080500 0.458172
vt 0.080500 0.554101
vt 0.198435 0.337399
vt 0.198435 0.060386
vt 0.203537 0.060386
vt 0.203537 0.337399
vt 0.073385 0.060386
vt 0.073385 0.337399
vt 0.069392 0.337399
vt 0.069392 0.060386
vt 0.064258 0.337399
vt 0.064258 0.060386
vt 0.060386 0.337399
vt 0.060386 0.060386
vt 0.333487 0.060386
vt 0.333487 0.337399
vt 0.329441 0.337399
vt 0.329441 0.060386
vt 0.324310 0.337399
vt 0.324310 0.060386
vt 0.454260 0.333442
vt 0.454260 0.060953
vt 0.458316 0.060386
vt 0.458316 0.332876
vt 0.278970 0.802390
vt 0.275670 0.806323
vt 0.270614 0.807215
vt 0.266168 0.804649
vt 0.264412 0.799825
vt 0.266168 0.795000
vt 0.270614 0.792433
vt 0.275670 0.793324
vt 0.278970 0.797256
vt 0.463447 0.060422
vt 0.463447 0.332911
vt 0.194157 0.337399
vt 0.194157 0.060386
vt 0.584183 0.742913
vt 0.588629 0.740346
vt 0.593685 0.741237
vt 0.596985 0.745169
vt 0.596985 0.750303
vt 0.593685 0.754237
vt 0.588629 0.755129
vt 0.584183 0.752562
vt 0.582427 0.747738
vn 0.0000 -0.3420 -0.9397
vn 0.0000 -0.8660 -0.5000
vn 0.0000 -0.9848 0.1736
vn 0.0000 -0.6428 0.7660
vn -0.0000 0.0000 1.0000
vn -0.0000 0.6428 0.7660
vn -0.0000 0.9848 0.1737
vn 1.0000 -0.0000 0.0000
vn -0.0000 0.8660 -0.5000
vn -0.0000 0.3420 -0.9397
vn -1.0000 -0.0000 0.0000
vn 0.3317 -0.2442 -0.9113
vn 0.2492 0.6848 -0.6848
vn 0.2492 -0.6848 -0.6848
vn 0.3317 0.2442 -0.9113
vn 0.0938 0.9617 -0.2577
vn 0.0938 -0.9617 -0.2577
vn 0.6311 -0.6848 -0.3644
vn 0.8398 0.2442 -0.4849
vn 0.2375 0.9617 -0.1371
vn 0.2375 -0.9617 -0.1371
vn 0.8398 -0.2442 -0.4849
vn 0.6311 0.6848 -0.3644
vn 0.7177 -0.6848 0.1265
vn 0.9550 0.2442 0.1684
vn 0.2700 0.9617 0.0476
vn 0.2701 -0.9617 0.0476
vn 0.9550 -0.2442 0.1684
vn 0.7177 0.6848 0.1265
vn 0.4684 -0.6848 0.5582
vn 0.6233 0.2442 0.7429
vn 0.1763 0.9617 0.2101
vn 0.1763 -0.9617 0.2101
vn 0.6233 -0.2442 0.7429
vn 0.4684 0.6848 0.5582
vn 0.0000 0.2442 0.9697
vn 0.0000 0.9617 0.2742
vn 0.0000 -0.9617 0.2742
vn 0.0000 -0.2442 0.9697
vn 0.0000 0.6848 0.7287
vn 0.0000 -0.6848 0.7287
vn -0.1763 0.9617 0.2101
vn -0.1763 -0.9617 0.2101
vn -0.6233 -0.2442 0.7429
vn -0.4684 0.6848 0.5582
vn -0.4684 -0.6848 0.5582
vn -0.6233 0.2442 0.7429
vn -0.2701 -0.9617 0.0476
vn -0.9550 -0.2442 0.1684
vn -0.7177 0.6848 0.1265
vn -0.7177 -0.6848 0.1265
vn -0.9550 0.2442 0.1684
vn -0.2700 0.9617 0.0476
vn -0.2375 -0.9617 -0.1371
vn -0.8398 -0.2442 -0.4849
vn -0.6311 0.6848 -0.3644
vn -0.6311 -0.6848 -0.3644
vn -0.8398 0.2442 -0.4849
vn -0.2375 0.9617 -0.1371
vn -0.0938 -0.9617 -0.2577
vn -0.3317 -0.2442 -0.9113
vn -0.2492 0.6848 -0.6848
vn -0.2492 -0.6848 -0.6848
vn -0.3317 0.2442 -0.9113
vn -0.0938 0.9617 -0.2577
vn 0.2847 -0.1965 -0.9382
vn 0.2326 0.5990 -0.7663
vn 0.2326 -0.5990 -0.7663
vn 0.2847 0.1965 -0.9382
vn 0.0640 0.9754 -0.2107
vn 0.0640 -0.9754 -0.2107
vn 0.6307 -0.6415 -0.4367
vn 0.8023 0.2187 -0.5555
vn 0.1627 0.9802 -0.1127
vn 0.1627 -0.9802 -0.1127
vn 0.8023 -0.2187 -0.5555
vn 0.6307 0.6415 -0.4367
vn 0.7362 -0.6586 0.1557
vn 0.9525 0.2283 0.2014
vn 0.1854 0.9819 0.0392
vn 0.1854 -0.9819 0.0392
vn 0.9525 -0.2283 0.2014
vn 0.7362 0.6586 0.1557
vn 0.4508 -0.6178 0.6443
vn 0.5610 0.2060 0.8018
vn 0.1205 0.9777 0.1722
vn 0.1205 -0.9777 0.1722
vn 0.5610 -0.2060 0.8018
vn 0.4508 0.6178 0.6443
vn 0.0000 0.1931 0.9812
vn 0.0000 0.9746 0.2241
vn 0.0000 -0.9746 0.2241
vn -0.0000 -0.1931 0.9812
vn 0.0000 0.5920 0.8060
vn -0.0000 -0.5920 0.8060
vn -0.1205 0.9777 0.1722
vn -0.1205 -0.9777 0.1722
vn -0.5610 -0.2060 0.8018
vn -0.4508 0.6178 0.6443
vn -0.4508 -0.6178 0.6443
vn -0.5610 0.2060 0.8018
vn -0.1854 -0.9819 0.0392
vn -0.9525 -0.2283 0.2014
vn -0.7362 0.6586 0.1557
vn -0.7362 -0.6586 0.1557
vn -0.9525 0.2283 0.2014
vn -0.1854 0.9819 0.0392
vn -0.1627 -0.9802 -0.1127
vn -0.8023 -0.2187 -0.5555
vn -0.6307 0.6415 -0.4367
vn -0.6307 -0.6415 -0.4367
vn -0.8023 0.2187 -0.5555
vn -0.1627 0.9802 -0.1127
vn -0.0640 -0.9754 -0.2107
vn -0.2847 -0.1965 -0.9382
vn -0.2326 0.5990 -0.7663
vn -0.2326 -0.5990 -0.7663
vn -0.2847 0.1965 -0.9382
vn -0.0640 0.9754 -0.2107
vn 0.3420 0.0000 -0.9397
vn 0.8660 0.0000 -0.5000
vn 0.9848 0.0000 0.1736
vn 0.6428 0.0000 0.7660
vn -0.6428 0.0000 0.7660
vn -0.9848 0.0000 0.1736
vn 0.0000 1.0000 0.0000
vn -0.8660 0.0000 -0.5000
vn -0.3420 -0.0000 -0.9397
vn 0.0000 -1.0000 0.0000
g Cylinder.001_Cylinder.001_Material.001
usemtl Material.001
s off
f 1/1/1 2/2/1 4/3/1 3/4/1
f 3/5/2 4/6/2 6/7/2 5/8/2
f 5/8/3 6/7/3 8/9/3 7/10/3
f 7/10/4 8/9/4 10/11/4 9/12/4
f 9/13/5 10/14/5 12/15/5 11/16/5
f 11/17/6 12/18/6 14/19/6 13/20/6
f 13/20/7 14/19/7 16/21/7 15/22/7
f 4/23/8 2/24/8 18/25/8 16/26/8 14/27/8 12/28/8 10/29/8 8/30/8 6/31/8
f 15/22/9 16/21/9 18/32/9 17/33/9
f 17/34/10 18/35/10 2/2/10 1/1/10
f 1/36/11 3/37/11 5/38/11 7/39/11 9/40/11 11/41/11 13/42/11 15/43/11 17/44/11
f 64/45/12 63/46/12 21/47/12 22/48/12
f 62/49/13 61/50/13 19/51/13 20/52/13
f 65/53/14 64/45/14 22/48/14 23/54/14
f 63/46/15 62/49/15 20/52/15 21/47/15
f 61/55/16 39/56/16 19/57/16
f 60/58/17 65/59/17 23/60/17
f 23/60/18 22/61/18 27/62/18 28/63/18
f 21/64/19 20/65/19 25/66/19 26/67/19
f 19/57/20 39/56/20 24/68/20
f 60/58/21 23/60/21 28/63/21
f 22/69/22 21/64/22 26/67/22 27/70/22
f 20/71/23 19/57/23 24/68/23 25/72/23
f 28/73/24 27/70/24 32/74/24 33/75/24
f 26/67/25 25/66/25 30/76/25 31/77/25
f 24/68/26 39/56/26 29/78/26
f 60/58/27 28/63/27 33/79/27
f 27/70/28 26/67/28 31/77/28 32/74/28
f 25/66/29 24/80/29 29/81/29 30/76/29
f 33/79/30 32/82/30 37/83/30 38/84/30
f 31/77/31 30/76/31 35/85/31 36/86/31
f 29/78/32 39/56/32 34/87/32
f 60/58/33 33/79/33 38/84/33
f 32/74/34 31/77/34 36/86/34 37/88/34
f 30/89/35 29/78/35 34/87/35 35/90/35
f 36/91/36 35/92/36 41/93/36 42/94/36
f 34/87/37 39/56/37 40/95/37
f 60/58/38 38/84/38 44/96/38
f 37/97/39 36/91/39 42/94/39 43/98/39
f 35/90/40 34/87/40 40/95/40 41/99/40
f 38/84/41 37/83/41 43/100/41 44/96/41
f 40/95/42 39/56/42 45/101/42
f 60/58/43 44/96/43 49/102/43
f 43/98/44 42/94/44 47/103/44 48/104/44
f 41/93/45 40/105/45 45/106/45 46/107/45
f 44/108/46 43/98/46 48/104/46 49/109/46
f 42/94/47 41/93/47 46/107/47 47/103/47
f 60/58/48 49/102/48 54/110/48
f 48/111/49 47/112/49 52/113/49 53/114/49
f 46/115/50 45/101/50 50/116/50 51/117/50
f 49/118/51 48/111/51 53/114/51 54/119/51
f 47/103/52 46/107/52 51/120/52 52/121/52
f 45/101/53 39/56/53 50/116/53
f 60/58/54 54/110/54 59/122/54
f 53/114/55 52/113/55 57/123/55 58/124/55
f 51/117/56 50/116/56 55/125/56 56/126/56
f 54/119/57 53/114/57 58/124/57 59/127/57
f 52/113/58 51/128/58 56/129/58 57/123/58
f 50/116/59 39/56/59 55/125/59
f 60/58/60 59/122/60 65/59/60
f 58/130/61 57/131/61 63/46/61 64/45/61
f 56/126/62 55/125/62 61/55/62 62/132/62
f 59/122/63 58/133/63 64/134/63 65/59/63
f 57/131/64 56/135/64 62/49/64 63/46/64
f 55/125/65 39/56/65 61/55/65
f 111/136/66 110/137/66 68/138/66 69/139/66
f 109/140/67 108/141/67 66/142/67 67/143/67
f 112/144/68 111/136/68 69/139/68 70/145/68
f 110/137/69 109/140/69 67/143/69 68/138/69
f 108/146/70 86/147/70 66/148/70
f 107/149/71 112/150/71 70/151/71
f 70/151/72 69/152/72 74/153/72 75/154/72
f 68/138/73 67/143/73 72/155/73 73/156/73
f 66/148/74 86/147/74 71/157/74
f 107/149/75 70/151/75 75/154/75
f 69/139/76 68/138/76 73/156/76 74/158/76
f 67/159/77 66/148/77 71/157/77 72/160/77
f 75/161/78 74/162/78 79/163/78 80/164/78
f 73/165/79 72/166/79 77/167/79 78/168/79
f 71/157/80 86/147/80 76/169/80
f 107/149/81 75/154/81 80/170/81
f 74/162/82 73/165/82 78/168/82 79/163/82
f 72/166/83 71/171/83 76/172/83 77/167/83
f 80/170/84 79/173/84 84/174/84 85/175/84
f 78/168/85 77/167/85 82/176/85 83/177/85
f 76/169/86 86/147/86 81/178/86
f 107/149/87 80/170/87 85/175/87
f 79/163/88 78/168/88 83/177/88 84/179/88
f 77/180/89 76/169/89 81/178/89 82/181/89
f 83/182/90 82/183/90 88/184/90 89/185/90
f 81/178/91 86/147/91 87/186/91
f 107/149/92 85/175/92 91/187/92
f 84/188/93 83/182/93 89/185/93 90/189/93
f 82/183/94 81/190/94 87/191/94 88/184/94
f 85/192/95 84/188/95 90/189/95 91/193/95
f 87/186/96 86/147/96 92/194/96
f 107/149/97 91/187/97 96/195/97
f 90/189/98 89/185/98 94/196/98 95/197/98
f 88/184/99 87/191/99 92/198/99 93/199/99
f 91/193/100 90/189/100 95/197/100 96/200/100
f 89/185/101 88/184/101 93/199/101 94/196/101
f 107/149/102 96/195/102 101/201/102
f 95/202/103 94/203/103 99/204/103 100/205/103
f 93/206/104 92/194/104 97/207/104 98/208/104
f 96/209/105 95/202/105 100/205/105 101/210/105
f 94/196/106 93/199/106 98/211/106 99/212/106
f 92/194/107 86/147/107 97/207/107
f 107/149/108 101/201/108 106/213/108
f 100/205/109 99/204/109 104/214/109 105/215/109
f 98/208/110 97/207/110 102/216/110 103/217/110
f 101/210/111 100/205/111 105/215/111 106/218/111
f 99/204/112 98/219/112 103/220/112 104/214/112
f 97/207/113 86/147/113 102/216/113
f 107/149/114 106/213/114 112/150/114
f 105/221/115 104/222/115 110/137/115 111/136/115
f 103/223/116 102/224/116 108/141/116 109/140/116
f 106/225/117 105/221/117 111/136/117 112/144/117
f 104/222/118 103/223/118 109/140/118 110/137/118
f 102/216/119 86/147/119 108/146/119
f 113/226/120 114/227/120 116/228/120 115/229/120
f 115/230/121 116/231/121 118/232/121 117/233/121
f 117/233/122 118/232/122 120/234/122 119/235/122
f 119/235/123 120/234/123 122/236/123 121/237/123
f 121/238/5 122/239/5 124/240/5 123/241/5
f 123/241/124 124/240/124 126/242/124 125/243/124
f 125/244/125 126/245/125 128/246/125 127/247/125
f 116/248/126 114/249/126 130/250/126 128/251/126 126/252/126 124/253/126 122/254/126 120/255/126 118/256/126
f 127/247/127 128/246/127 130/257/127 129/258/127
f 129/259/128 130/260/128 114/227/128 113/226/128
f 113/261/129 115/262/129 117/263/129 119/264/129 121/265/129 123/266/129 125/267/129 127/268/129 129/269/129
