# Blender v2.93.0 OBJ File: 'Elderhex_Land.blend'
# www.blender.org
mtllib Elderhex_Land.mtl
o Plane
v -9.997276 3.120413 -5.399998
v -10.000001 0.614299 -1.111111
v -10.000001 1.022345 1.111112
v 10.000001 1.881699 7.777779
v 10.000001 1.126908 5.555557
v 10.000001 -0.858776 3.333334
v -7.471165 1.306193 10.000483
v -0.000000 -0.858776 10.000001
v 2.500000 1.126907 10.000001
v 7.529651 1.887165 7.804375
v 4.925265 1.126624 7.659857
v 2.493962 1.123112 7.843198
v 0.000000 -0.858776 7.777779
v -5.000000 -0.858776 7.777779
v -7.500001 1.576810 7.777779
v 7.037025 1.169428 5.616855
v 5.050841 1.088282 5.514653
v 2.500000 -0.858776 5.555556
v -4.894207 -0.034722 5.335042
v -7.500001 0.753008 5.555556
v 5.000000 -0.858776 3.333334
v -2.514158 -0.854670 3.370551
v -5.698410 0.227797 3.283782
v 7.500001 -0.858776 1.111111
v 0.042831 -0.858068 1.108613
v -2.500000 0.919040 1.111111
v 5.000000 0.000000 -1.111111
v 0.000000 0.000000 -1.111111
v 7.500001 2.554957 -3.333334
v 4.970872 2.516617 -3.345646
v 2.497258 0.001929 -3.245948
v -2.568938 -0.008604 -3.514904
v -5.000000 0.919040 -3.333334
v 5.000000 2.554957 -5.555556
v 2.500000 0.000000 -5.555556
v -5.000000 3.370115 -5.555556
v 2.496653 2.552526 -7.845397
v 0.000000 0.000000 -7.777779
v -7.500001 7.239060 -7.777779
v -10.000001 1.305600 10.000001
v 10.000001 1.881699 10.000001
v -10.000001 7.239060 -10.000001
v -10.000001 0.818322 0.000000
v -10.000001 0.753008 3.333334
v 10.003107 -0.019702 1.130698
v 10.000001 2.554957 -3.333334
v -10.000001 1.576810 7.777780
v -10.000001 0.753008 5.555556
v -8.750001 1.073819 -1.111111
v -10.009245 0.635178 -3.251312
v -10.000001 7.239060 -7.777779
v -5.021644 -0.858352 9.999889
v 5.000000 1.126907 10.000001
v 7.500002 1.881699 10.000001
v 10.000001 3.333108 -10.000001
v 7.500001 3.333108 -10.000001
v 5.000000 2.554957 -10.000001
v -0.000000 0.000000 -10.000001
v -4.999998 3.370111 -10.000001
v -6.250001 0.359017 7.777779
v 3.750000 0.134066 5.555556
v 0.552386 -0.852183 6.049107
v -2.514012 -0.857642 6.214965
v 8.420325 -0.868244 3.319766
v 3.052386 -0.852183 3.826885
v 8.750001 -0.429388 1.111111
v -1.250000 0.030132 1.111111
v -5.424958 0.912717 1.397921
v -7.165940 0.991161 1.474385
v 3.750000 0.000000 -1.111111
v 3.333334 -0.000000 -1.111111
v -1.250000 0.459520 -1.111111
v -6.250001 1.226190 -1.111111
v 5.092507 2.400927 -3.198712
v -0.209362 0.000000 -3.145618
v -3.750000 0.459520 -3.333334
v 10.000001 3.333108 -5.555556
v 3.750000 1.277478 -5.555556
v -2.500000 -0.000000 -5.185186
v -3.750000 1.685058 -5.555556
v -5.938448 3.368165 -5.561208
v 5.000000 2.554957 -7.037038
v 4.166667 2.554957 -7.777779
v -2.500000 0.000000 -10.000001
v -5.000001 3.370116 -7.407409
v -6.250001 5.304588 -7.777779
v -7.500001 5.304588 -6.666667
v -5.000000 3.370115 -6.666667
v 0.548200 0.007232 -6.045970
v 2.500000 1.277478 -6.666667
v -7.172706 3.448552 -5.597930
v -5.000000 2.144578 -4.444445
v 5.000000 2.554957 -4.444445
v 7.517952 3.335943 -5.577206
v -7.498717 1.533323 -3.358357
v -4.831753 0.910394 -1.905235
v -2.500000 0.459520 -2.222223
v 2.500000 0.000000 -2.222223
v 9.999343 0.015232 -1.123527
v -7.589117 1.499591 -1.194261
v -5.267497 0.925414 0.630142
v -2.292574 0.918036 -0.892861
v 8.225017 -0.002441 -1.105804
v -4.022927 0.153437 2.453081
v -2.500000 0.030132 2.222223
v -7.506015 0.753879 3.295700
v -0.211910 -0.858776 3.139354
v -7.500001 1.164909 6.666667
v -5.000000 -0.429388 6.666667
v -2.927029 -0.855190 7.397203
v 2.500000 0.134066 6.666667
v 5.000000 1.126907 6.666667
v -7.500002 7.239060 -10.000001
v 2.500000 2.554957 -10.000001
v 8.750001 -0.644082 2.222222
v 8.750001 -0.214694 -0.000000
v -6.250000 4.337351 -6.666667
v 1.250000 0.638739 -6.666667
v 3.750000 1.916218 -6.666667
v -8.750001 2.221967 -4.444445
v -3.750000 1.072289 -4.444445
v 6.250001 2.749495 -4.444445
v -3.750000 0.689280 -2.222222
v -1.250000 0.229760 -2.222222
v 3.750000 0.638739 -2.222222
v -8.750001 1.048082 0.000000
v -1.250000 0.244826 0.000000
v -1.250000 -0.414322 2.222222
v 3.750000 -0.362355 4.444445
v -6.250000 0.367761 6.666667
v 1.250000 -0.362355 6.666667
v 3.750000 0.630487 6.666667
v 6.250001 1.315605 6.666667
vt 1.000000 0.777778
vt 0.875000 1.000000
vt 0.875095 0.776876
vt 1.000000 0.222222
vt 0.920683 0.333261
vt 0.851851 0.222222
vt 1.000000 0.443261
vt 0.937500 0.444445
vt 0.937500 0.388889
vt 1.000000 0.666667
vt 0.875000 0.666667
vt 0.000000 0.768612
vt 0.148916 0.779235
vt 0.000000 0.888889
vt 0.125000 0.833333
vt 0.312500 0.777778
vt 0.250000 0.833333
vt 0.250000 0.777778
vt 0.375000 0.759259
vt 0.251436 0.888570
vt 0.625000 0.833333
vt 0.624786 0.888889
vt 0.562500 0.833333
vt 0.500000 0.888889
vt 0.527610 0.781505
vt 0.750000 0.851852
vt 0.687500 0.888889
vt 0.687500 0.833333
vt 0.750000 0.777778
vt 0.124934 0.667555
vt 0.187500 0.777875
vt 0.875107 0.111562
vt 0.875000 0.000000
vt 1.000000 0.000000
vt 1.000000 0.111111
vt 0.312500 0.666667
vt 0.375000 0.675745
vt 0.312500 0.722222
vt 0.470633 0.637215
vt -0.000107 0.665316
vt 0.122614 0.558194
vt 0.187500 0.555556
vt 0.254829 0.565967
vt 0.625000 0.555556
vt 0.500000 0.555556
vt 0.775532 0.633806
vt 0.747494 0.666667
vt 0.687500 0.611111
vt 0.897423 0.559795
vt 0.750000 0.555556
vt 0.062500 0.555556
vt 0.062500 0.500000
vt 0.149058 0.432635
vt 0.241364 0.500000
vt 0.375000 0.544643
vt 0.437500 0.444445
vt 0.511089 0.501286
vt 0.437500 0.500000
vt 0.125000 0.335215
vt 0.000000 0.333333
vt 0.000000 0.444445
vt 0.226599 0.346529
vt 0.373956 0.333333
vt 0.375000 0.388889
vt 0.300007 0.388889
vt 0.750000 0.333333
vt 0.474852 0.360715
vt 0.629738 0.308244
vt 0.226694 0.236144
vt 0.125000 0.222222
vt 0.504738 0.197133
vt 0.377954 0.202828
vt 0.687500 0.222222
vt 0.750000 0.225367
vt 0.687500 0.277778
vt 0.250000 0.111111
vt 0.342592 0.140907
vt 0.250000 0.166667
vt 0.500000 0.111111
vt 0.562500 0.166667
vt 0.624584 0.111111
vt 0.625000 0.166667
vt 0.744395 0.111111
vt 0.750000 0.166667
vt 0.687500 0.166667
vt 0.249695 0.000250
vt 0.187500 0.111111
vt 0.500000 0.000000
vt 0.625000 0.000000
vt 0.750000 0.000000
vt 0.250000 1.000000
vt 0.187500 0.888889
vt 0.375000 1.000000
vt 0.500000 1.000000
vt 0.625000 1.000000
vt 1.000000 1.000000
vt 1.000000 0.333333
vt 0.875000 0.444445
vt 0.937500 0.500000
vt 0.999998 0.555385
vt 0.187500 0.833333
vt 0.125000 0.888889
vt 0.625000 0.777778
vt 0.687500 0.777778
vt 0.062500 0.722222
vt 0.250000 0.722222
vt 0.250000 0.666667
vt 0.625000 0.662297
vt 0.750000 0.722222
vt 0.812500 0.722222
vt 0.000000 0.555556
vt 0.312500 0.611111
vt 0.375000 0.611111
vt 0.437500 0.555556
vt 0.437500 0.611111
vt 0.625000 0.611111
vt 0.687500 0.555556
vt 0.000000 0.500000
vt 0.228752 0.444445
vt 0.375000 0.444445
vt 0.437500 0.388889
vt 0.000000 0.222222
vt 0.625000 0.222222
vt 0.000000 0.111111
vt 0.125000 0.111111
vt 0.125000 0.166667
vt 0.187500 0.166667
vt 0.812500 0.166667
vt 0.000000 0.000000
vt 0.125000 -0.000020
vt 0.000000 1.000000
vt 0.125000 1.000000
vt 0.750000 1.000000
vn 0.0011 1.0000 -0.0006
vn -0.0030 0.7472 -0.6646
vn -0.3082 0.9340 0.1805
vn 0.0000 0.9444 0.3287
vn 0.0026 0.5000 0.8660
vn 0.0011 0.4992 0.8665
vn 0.8031 0.5958 0.0000
vn -0.3275 0.6409 0.6942
vn -0.5677 0.8042 0.1763
vn -0.3320 0.8662 0.3735
vn -0.2962 0.9551 0.0000
vn 0.0299 0.7575 0.6522
vn 0.0011 1.0000 0.0012
vn 0.3883 0.8070 0.4450
vn -0.0044 1.0000 0.0050
vn -0.3368 0.9416 0.0006
vn 0.1986 0.9798 0.0236
vn 0.2225 0.9749 0.0096
vn 0.0000 1.0000 0.0000
vn -0.2874 0.6224 0.7280
vn -0.0007 0.6562 0.7546
vn -0.3429 0.9391 0.0218
vn 0.1092 0.9795 0.1693
vn 0.2357 0.9712 0.0348
vn -0.0006 1.0000 -0.0060
vn 0.5594 0.8138 0.1573
vn 0.0016 0.9916 0.1295
vn -0.0045 0.9927 0.1203
vn 0.2762 0.9451 0.1747
vn 0.1549 0.7817 0.6042
vn 0.0004 0.9999 -0.0116
vn 0.0025 0.9977 -0.0671
vn 0.2893 0.9572 -0.0004
vn 0.3220 0.9467 -0.0051
vn -0.0019 1.0000 -0.0018
vn 0.0019 1.0000 0.0010
vn -0.5638 0.7541 -0.3369
vn -0.1295 0.8429 -0.5223
vn 0.0644 0.9308 0.3597
vn -0.4765 0.8665 -0.1490
vn -0.2906 0.7317 -0.6166
vn -0.3690 0.9290 -0.0275
vn 0.6978 0.7163 0.0067
vn 0.0001 1.0000 0.0013
vn -0.0018 1.0000 -0.0002
vn -0.6220 0.7831 0.0004
vn -0.6221 0.7829 -0.0000
vn -0.0016 1.0000 -0.0018
vn -0.2808 0.9597 0.0089
vn 0.8399 0.5427 0.0000
vn -0.7149 0.6992 -0.0000
vn -0.7148 0.6994 -0.0003
vn -0.0015 1.0000 0.0011
vn -0.0999 0.9500 0.2960
vn -0.0014 0.9469 -0.3216
vn 0.0071 0.9497 -0.3132
vn 0.0013 0.7457 -0.6663
vn -0.2909 0.9458 0.1445
vn -0.2653 0.9332 0.2425
vn -0.2169 0.9735 0.0725
vn 0.2528 0.6253 0.7383
vn -0.0079 0.9813 0.1921
vn 0.0000 0.6564 0.7544
vn -0.0018 0.9438 0.3305
vn 0.0000 0.4981 0.8671
vn 0.3810 0.8656 0.3249
vn 0.6926 0.6394 0.3339
vn 0.5766 0.4968 0.6487
vn -0.0011 1.0000 -0.0010
vn -0.2410 0.6992 0.6731
vn -0.5020 0.6550 0.5648
vn -0.6604 0.6556 0.3660
vn -0.5783 0.7922 0.1952
vn -0.1833 0.7703 0.6107
vn -0.1743 0.7284 0.6626
vn -0.1074 0.6505 0.7518
vn 0.1369 0.6948 0.7061
vn -0.0326 0.7066 0.7069
vn 0.4269 0.6968 0.5764
vn -0.0059 0.6717 0.7408
vn 0.6982 0.6948 0.1725
vn 0.6476 0.5871 0.4857
vn 0.0010 1.0000 0.0012
vn -0.0018 1.0000 0.0020
vn -0.7159 0.6982 0.0027
vn -0.7135 0.7006 -0.0001
vn -0.0705 0.9893 0.1276
vn -0.0972 0.9560 0.2767
vn -0.2485 0.9622 0.1111
vn -0.3444 0.9388 0.0102
vn 0.1389 0.9392 -0.3139
vn 0.2389 0.9708 -0.0223
vn 0.2460 0.9289 -0.2767
vn 0.2661 0.9586 -0.1011
vn 0.2511 0.9258 -0.2825
vn 0.2546 0.9631 -0.0873
vn 0.0859 0.9605 -0.2648
vn -0.0006 1.0000 0.0019
vn -0.2306 0.7087 0.6668
vn -0.6131 0.7332 0.2941
vn -0.0460 0.9985 -0.0286
vn 0.0010 0.6574 0.7535
vn 0.0002 0.6565 0.7543
vn -0.2650 0.9612 -0.0771
vn -0.1600 0.9647 0.2092
vn 0.0015 1.0000 0.0044
vn 0.0461 0.9986 0.0260
vn 0.1962 0.9788 0.0584
vn 0.5356 0.8393 0.0932
vn 0.4138 0.8681 0.2743
vn 0.1358 0.9247 0.3555
vn 0.4265 0.8881 0.1716
vn 0.0000 0.9327 0.3606
vn -0.0000 0.9328 0.3603
vn 0.0001 0.9327 0.3608
vn 0.0875 0.8193 0.5667
vn 0.2719 0.8378 0.4734
vn 0.1406 0.8628 0.4856
vn 0.4415 0.8827 0.1609
vn 0.4159 0.7798 0.4679
vn 0.0006 1.0000 0.0023
vn -0.0002 1.0000 0.0002
vn 0.2795 0.9601 0.0133
vn 0.3264 0.9452 0.0010
vn -0.5373 0.8074 -0.2438
vn -0.0000 0.9376 -0.3476
vn -0.2794 0.7196 -0.6358
vn 0.0035 0.7491 -0.6624
vn -0.0006 0.7460 -0.6659
vn 0.6214 0.7709 -0.1399
vn 0.6203 0.7696 0.1517
vn 0.3733 0.9223 -0.1003
vn 0.5161 0.8092 0.2808
vn 0.2003 0.9609 0.1913
vn -0.0004 1.0000 0.0013
vn -0.2103 0.7824 -0.5862
vn -0.5835 0.7449 -0.3236
vn -0.1408 0.8507 -0.5065
vn -0.4857 0.8482 -0.2114
vn -0.4435 0.7445 -0.4990
vn -0.2327 0.9642 -0.1269
vn -0.0790 0.9904 -0.1132
vn -0.1832 0.9456 -0.2690
vn -0.0001 0.9927 0.1210
vn 0.6737 0.7369 0.0561
vn 0.0012 1.0000 0.0000
vn 0.0000 1.0000 -0.0001
vn -0.2890 0.9573 -0.0015
vn -0.2966 0.9550 0.0006
vn -0.2972 0.9548 0.0000
g Plane_Plane_None
usemtl None
s off
f 77/1/1 56/2/1 94/3/1
f 5/4/2 64/5/2 16/6/2
f 45/7/3 66/8/3 115/9/3
f 46/10/4 94/3/4 29/11/4
f 1/12/5 91/13/5 51/14/5
f 87/15/6 51/14/6 91/13/6
f 80/16/7 88/17/7 36/18/7
f 79/19/7 85/20/7 80/16/7
f 90/21/8 37/22/8 118/23/8
f 118/23/9 38/24/9 89/25/9
f 82/26/10 83/27/10 119/28/10
f 94/3/11 82/26/11 34/29/11
f 95/30/12 81/31/12 91/13/12
f 10/32/13 54/33/13 41/34/13 4/35/13
f 76/36/14 32/37/14 121/38/14
f 75/39/15 79/19/15 32/37/15
f 95/30/16 50/40/16 100/41/16
f 73/42/17 95/30/17 100/41/17
f 96/43/18 95/30/18 73/42/18
f 71/44/19 75/39/19 28/45/19
f 74/46/20 30/47/20 125/48/20
f 103/49/21 74/46/21 27/50/21
f 100/41/22 49/51/22 126/52/22
f 69/53/23 101/54/23 100/41/23
f 101/54/24 96/43/24 73/42/24
f 102/55/25 96/43/25 101/54/25
f 67/56/26 25/57/26 127/58/26
f 106/59/27 69/53/27 44/60/27
f 69/53/28 3/61/28 44/60/28
f 106/59/29 23/62/29 69/53/29
f 22/63/30 105/64/30 104/65/30
f 21/66/31 107/67/31 65/68/31
f 64/5/32 107/67/32 21/66/32
f 19/69/33 106/59/33 20/70/33
f 22/63/34 23/62/34 19/69/34
f 62/71/35 107/67/35 63/72/35
f 107/67/36 22/63/36 63/72/36
f 61/73/37 17/74/37 129/75/37
f 129/75/38 21/66/38 65/68/38
f 14/76/39 110/77/39 109/78/39
f 13/79/40 131/80/40 62/71/40
f 12/81/41 111/82/41 131/80/41
f 11/83/42 112/84/42 132/85/42
f 52/86/43 14/76/43 60/87/43
f 8/88/44 110/77/44 52/86/44
f 110/77/45 14/76/45 52/86/45
f 9/89/46 12/81/46 8/88/46
f 12/81/47 13/79/47 8/88/47
f 11/83/48 12/81/48 9/89/48
f 10/32/49 11/83/49 53/90/49
f 85/20/50 59/91/50 86/92/50
f 85/20/7 84/93/7 59/91/7
f 37/22/51 58/94/51 38/24/51
f 114/95/52 58/94/52 37/22/52
f 37/22/53 83/27/53 114/95/53
f 56/2/19 77/1/19 55/96/19
f 115/9/54 64/5/54 6/97/54 45/7/54
f 10/32/55 4/35/55 5/4/55
f 10/32/56 5/4/56 16/6/56
f 5/4/57 6/97/57 64/5/57
f 24/98/58 64/5/58 115/9/58 66/8/58
f 103/49/59 24/98/59 66/8/59 116/99/59
f 116/99/60 66/8/60 45/7/60 99/100/60
f 117/101/61 87/15/61 91/13/61 81/31/61
f 116/99/62 99/100/62 103/49/62
f 99/100/63 46/10/63 29/11/63
f 46/10/64 77/1/64 94/3/64
f 87/15/65 39/102/65 51/14/65
f 88/17/66 117/101/66 81/31/66 36/18/66
f 85/20/67 86/92/67 117/101/67 88/17/67
f 86/92/68 39/102/68 87/15/68 117/101/68
f 84/93/69 79/19/69 89/25/69 38/24/69
f 80/16/7 85/20/7 88/17/7
f 79/19/7 84/93/7 85/20/7
f 118/23/70 89/25/70 35/103/70 90/21/70
f 90/21/71 35/103/71 78/104/71 119/28/71
f 118/23/72 37/22/72 38/24/72
f 119/28/73 78/104/73 34/29/73 82/26/73
f 37/22/74 90/21/74 119/28/74 83/27/74
f 120/105/75 50/40/75 95/30/75 91/13/75
f 50/40/76 120/105/76 1/12/76
f 92/106/77 81/31/77 95/30/77 33/107/77
f 120/105/78 91/13/78 1/12/78
f 121/38/79 92/106/79 33/107/79 76/36/79
f 81/31/80 92/106/80 36/18/80
f 79/19/81 80/16/81 121/38/81 32/37/81
f 80/16/82 36/18/82 92/106/82 121/38/82
f 89/25/83 75/39/83 31/108/83 35/103/83
f 75/39/84 89/25/84 79/19/84
f 78/104/85 30/47/85 93/109/85 34/29/85
f 78/104/86 35/103/86 31/108/86 30/47/86
f 93/109/87 30/47/87 74/46/87 122/110/87
f 122/110/88 74/46/88 29/11/88 94/3/88
f 34/29/89 93/109/89 122/110/89 94/3/89
f 50/40/90 2/111/90 49/51/90 100/41/90
f 123/112/91 96/43/91 102/55/91 97/113/91
f 95/30/92 96/43/92 33/107/92
f 76/36/93 123/112/93 97/113/93 32/37/93
f 33/107/94 96/43/94 123/112/94 76/36/94
f 97/113/95 102/55/95 72/114/95 124/115/95
f 124/115/96 72/114/96 28/45/96 75/39/96
f 32/37/97 97/113/97 124/115/97 75/39/97
f 98/116/10 71/44/10 70/117/10 125/48/10
f 71/44/19 98/116/19 75/39/19
f 98/116/98 31/108/98 75/39/98
f 125/48/99 70/117/99 27/50/99 74/46/99
f 31/108/100 98/116/100 125/48/100 30/47/100
f 126/52/101 43/118/101 3/61/101 69/53/101
f 103/49/102 99/100/102 74/46/102
f 99/100/103 29/11/103 74/46/103
f 49/51/104 2/111/104 43/118/104 126/52/104
f 69/53/105 100/41/105 126/52/105
f 101/54/106 68/119/106 26/120/106 102/55/106
f 69/53/107 68/119/107 101/54/107
f 100/41/108 101/54/108 73/42/108
f 127/58/109 102/55/109 26/120/109 67/56/109
f 28/45/110 72/114/110 127/58/110 25/57/110
f 68/119/111 69/53/111 23/62/111 104/65/111
f 102/55/112 127/58/112 72/114/112
f 25/57/113 71/44/113 28/45/113
f 25/57/113 27/50/113 70/117/113
f 25/57/113 70/117/113 71/44/113
f 24/98/114 103/49/114 25/57/114
f 25/57/115 103/49/115 27/50/115
f 26/120/116 68/119/116 104/65/116 105/64/116
f 23/62/117 22/63/117 104/65/117
f 128/121/118 105/64/118 22/63/118 107/67/118
f 25/57/119 67/56/119 128/121/119 107/67/119
f 67/56/120 26/120/120 105/64/120 128/121/120
f 25/57/121 107/67/121 64/5/121 24/98/121
f 44/60/122 48/122/122 20/70/122 106/59/122
f 107/67/19 62/71/19 18/123/19 65/68/19
f 106/59/123 19/69/123 23/62/123
f 63/72/124 22/63/124 19/69/124
f 129/75/125 65/68/125 18/123/125 61/73/125
f 48/122/126 47/124/126 15/125/126 108/126/126
f 129/75/127 17/74/127 21/66/127
f 16/6/128 64/5/128 17/74/128
f 17/74/129 64/5/129 21/66/129
f 108/126/130 15/125/130 60/87/130 130/127/130
f 108/126/126 20/70/126 48/122/126
f 109/78/131 130/127/131 60/87/131 14/76/131
f 20/70/132 108/126/132 130/127/132 19/69/132
f 130/127/133 109/78/133 19/69/133
f 63/72/134 19/69/134 109/78/134 110/77/134
f 63/72/135 110/77/135 13/79/135 62/71/135
f 18/123/136 62/71/136 131/80/136 111/82/136
f 13/79/137 12/81/137 131/80/137
f 132/85/138 111/82/138 12/81/138 11/83/138
f 17/74/139 61/73/139 132/85/139 112/84/139
f 61/73/140 18/123/140 111/82/140 132/85/140
f 133/128/141 112/84/141 11/83/141 10/32/141
f 16/6/142 17/74/142 112/84/142 133/128/142
f 133/128/143 10/32/143 16/6/143
f 47/124/144 40/129/144 7/130/144 15/125/144
f 60/87/145 15/125/145 7/130/145 52/86/145
f 42/131/19 51/14/19 39/102/19 113/132/19
f 8/88/146 13/79/146 110/77/146
f 53/90/147 11/83/147 9/89/147
f 54/33/148 10/32/148 53/90/148
f 113/132/50 39/102/50 86/92/50 59/91/50
f 38/24/19 58/94/19 84/93/19
f 82/26/19 57/133/19 83/27/19
f 83/27/19 57/133/19 114/95/19
f 94/3/149 56/2/149 82/26/149
f 57/133/150 82/26/150 56/2/150
