# Blender v2.93.0 OBJ File: 'Low-Poly_Spikes.blend'
# www.blender.org
mtllib Low-Poly_Spikes.mtl
o Cube.005
v 0.386118 -0.008764 0.539906
v 0.149300 -0.001328 0.720075
v 0.213466 0.033858 0.311208
v -0.023352 0.041294 0.491376
v 0.446874 0.644466 0.606948
v 0.060958 0.691645 0.561210
v 0.223679 0.651474 0.776753
v 0.284153 0.684637 0.391406
v 0.456683 2.345247 0.715525
v 0.444395 1.506286 0.667409
v 0.446874 0.644466 0.606948
v 0.060958 0.691645 0.561210
v 0.199762 1.546506 0.642014
v 0.304772 1.519641 0.777874
v 0.223679 0.651474 0.776753
v 0.339386 1.533151 0.531549
v 0.284153 0.684637 0.391406
v 0.622693 2.461908 -0.396046
v 0.728713 0.011661 -0.521564
v 0.812603 0.018483 -0.240106
v 0.451068 0.012536 -0.438833
v 0.534957 0.019359 -0.157375
v 0.684043 1.595334 -0.485304
v 0.720580 0.696943 -0.526933
v 0.537970 0.704199 -0.183693
v 0.567802 1.599953 -0.266814
v 0.734371 1.599427 -0.316447
v 0.799644 0.703373 -0.261665
v 0.517474 1.595859 -0.435670
v 0.458906 0.697768 -0.448960
v 1.133615 2.756335 1.094305
v 1.122207 0.004470 1.000379
v 1.022688 0.010408 1.265460
v 0.851765 0.024322 0.898402
v 0.752246 0.030260 1.163483
v 1.206184 1.767851 1.036340
v 1.138906 0.760158 1.026567
v 0.786170 0.815221 1.163956
v 0.981649 1.802902 1.123795
v 1.139942 1.781115 1.192312
v 1.034842 0.780994 1.271594
v 1.047892 1.789639 0.967824
v 0.890234 0.794385 0.918930
v 0.015421 2.416836 -0.347193
v 0.079252 0.003078 -0.646938
v -0.080514 -0.006106 -0.414921
v -0.164734 0.033995 -0.800065
v -0.327225 0.033401 -0.561566
v 0.133830 1.578909 -0.531541
v 0.120981 0.677972 -0.592927
v -0.257198 0.703334 -0.481146
v -0.105228 1.568700 -0.461572
v 0.046542 1.553565 -0.378205
v -0.024679 0.666100 -0.342936
v -0.017940 1.594044 -0.614908
v -0.108970 0.707111 -0.737245
v -0.505363 -0.002576 -0.032362
v -0.312343 -0.001938 0.183398
v -0.719803 0.031686 0.159377
v -0.526783 0.032324 0.375136
v -0.450591 0.602520 -0.071978
v -0.470779 0.635413 0.312079
v -0.268675 0.603121 0.131370
v -0.652696 0.634811 0.108731
v -0.363225 2.173793 -0.023755
v -0.400468 1.398520 -0.040745
v -0.450591 0.602520 -0.071978
v -0.470779 0.635413 0.312079
v -0.409835 1.428901 0.202791
v -0.282588 1.407188 0.086432
v -0.268675 0.603121 0.131370
v -0.527714 1.420232 0.075615
v -0.652696 0.634811 0.108731
v -1.059703 2.351108 0.945434
v -0.605857 0.036493 0.750941
v -0.599454 0.031760 1.045641
v -0.892926 -0.002136 0.756558
v -0.886523 -0.006869 1.051258
v -0.835949 1.533493 0.822806
v -0.718011 0.674715 0.799542
v -0.997829 0.658307 1.069546
v -1.014067 1.523048 0.994677
v -0.840938 1.537436 0.999530
v -0.725849 0.680910 1.077169
v -1.009078 1.519105 0.817954
v -0.989991 0.652112 0.791919
v 0.906476 2.742300 0.482712
v 0.942977 0.010009 0.243675
v 0.892330 0.004553 0.513524
v 0.656726 0.026043 0.202016
v 0.605880 0.030480 0.478526
v 0.974159 1.793928 0.290359
v 0.974941 0.775079 0.260568
v 0.674629 0.792588 0.507998
v 0.785135 1.775394 0.446730
v 0.958177 1.769420 0.461950
v 0.944602 0.768152 0.540983
v 0.801117 1.799902 0.275139
v 0.705156 0.790191 0.221305
v -1.265431 2.289109 -0.482087
v -1.017560 0.020261 -0.597504
v -1.085032 0.017519 -0.309558
v -1.299478 0.011323 -0.663648
v -1.366950 0.008581 -0.375702
v -1.134774 1.489010 -0.550215
v -1.048101 0.656903 -0.589859
v -1.377392 0.645895 -0.380817
v -1.344385 1.482003 -0.417149
v -1.175253 1.487365 -0.377467
v -1.111691 0.654318 -0.318478
v -1.303906 1.483648 -0.589898
v -1.313801 0.648479 -0.652199
v 1.842776 -0.001373 0.376094
v 1.583986 0.009835 0.493459
v 1.724632 0.025995 0.112970
v 1.465841 0.037203 0.230334
v 1.887075 0.751007 0.421742
v 1.531823 0.787364 0.284366
v 1.643172 0.761570 0.532354
v 1.775727 0.776801 0.173753
v 1.875302 2.700081 0.442085
v 1.873013 1.738713 0.435537
v 1.887075 0.751007 0.421742
v 1.531823 0.787364 0.284366
v 1.647115 1.773767 0.351396
v 1.719606 1.755837 0.508362
v 1.643172 0.761570 0.532354
v 1.800522 1.756643 0.278572
v 1.775727 0.776801 0.173753
v 0.905934 0.023446 -1.148837
v 0.675714 0.017851 -0.983550
v 0.737251 0.012928 -1.384144
v 0.507030 0.007332 -1.218858
v 0.867863 0.726319 -1.164086
v 0.491906 0.711132 -1.230079
v 0.650886 0.721045 -1.008308
v 0.708883 0.716406 -1.385858
v 0.627458 2.525378 -1.274044
v 0.738841 1.637489 -1.214794
v 0.867863 0.726319 -1.164086
v 0.491906 0.711132 -1.230079
v 0.498969 1.639132 -1.254429
v 0.601743 1.644134 -1.114349
v 0.650886 0.721045 -1.008308
v 0.636066 1.632487 -1.354874
v 0.708883 0.716406 -1.385858
v -0.622356 2.515313 -0.887532
v -0.415147 -0.001057 -1.142833
v -0.687869 -0.008239 -1.070829
v -0.500190 0.037372 -1.417102
v -0.779076 0.039174 -1.341702
v -0.424981 1.640025 -0.974504
v -0.408409 0.701352 -1.055307
v -0.768133 0.735648 -1.215835
v -0.652320 1.634351 -1.077255
v -0.591612 1.614777 -0.915558
v -0.682173 0.690963 -0.960544
v -0.485690 1.659600 -1.136200
v -0.488559 0.737571 -1.313798
v 1.425868 2.369302 -0.747069
v 1.275296 0.002434 -0.818204
v 1.519442 0.005724 -0.701994
v 1.161504 0.020402 -0.552382
v 1.411699 0.032414 -0.434405
v 1.283574 1.543896 -0.852137
v 1.280653 0.663101 -0.851484
v 1.438585 0.690182 -0.500037
v 1.384315 1.535432 -0.630513
v 1.443520 1.527521 -0.793721
v 1.540130 0.665028 -0.752232
v 1.224369 1.551807 -0.688929
v 1.173408 0.680035 -0.600954
vt 0.909040 0.880453
vt 0.926472 0.880487
vt 0.926472 0.898081
vt 0.909040 0.898048
vt 0.116090 0.853655
vt 0.116090 0.894925
vt 0.103397 0.893486
vt 0.102623 0.852128
vt 0.557215 0.855940
vt 0.557215 0.897422
vt 0.544879 0.896321
vt 0.544126 0.854772
vt 0.397751 0.900482
vt 0.398508 0.858722
vt 0.410913 0.858622
vt 0.410913 0.900377
vt 0.250549 0.900786
vt 0.251317 0.859076
vt 0.263911 0.858564
vt 0.263911 0.900242
vt 0.337034 0.740482
vt 0.333036 0.793253
vt 0.329172 0.741667
vt 0.400279 0.746911
vt 0.410156 0.694628
vt 0.408082 0.747427
vt 0.262519 0.748837
vt 0.262933 0.801877
vt 0.254788 0.749370
vt 0.181268 0.736963
vt 0.188538 0.685232
vt 0.189220 0.738335
vt 0.176605 0.790953
vt 0.189220 0.792966
vt 0.262933 0.694384
vt 0.250549 0.694337
vt 0.397751 0.801935
vt 0.410156 0.801820
vt 0.337034 0.685291
vt 0.324550 0.687032
vt 0.548457 0.083033
vt 0.554752 0.028344
vt 0.558114 0.083033
vt 0.484456 0.358625
vt 0.478570 0.413479
vt 0.474454 0.358408
vt 0.909040 0.805748
vt 0.926219 0.806027
vt 0.926219 0.823766
vt 0.909040 0.823488
vt 0.475668 0.083176
vt 0.482211 0.028344
vt 0.485645 0.083176
vt 0.557175 0.358391
vt 0.551209 0.413319
vt 0.547533 0.358226
vt 0.560199 0.258440
vt 0.560199 0.301619
vt 0.545051 0.301360
vt 0.544126 0.258165
vt 0.471507 0.183355
vt 0.472013 0.140010
vt 0.487687 0.140010
vt 0.488137 0.183355
vt 0.487439 0.258526
vt 0.487439 0.301816
vt 0.471725 0.301476
vt 0.470766 0.258165
vt 0.544825 0.183167
vt 0.545090 0.139806
vt 0.560260 0.139806
vt 0.560921 0.183167
vt 0.045935 0.140741
vt 0.041409 0.202402
vt 0.036077 0.141521
vt 0.411232 0.371210
vt 0.409137 0.432070
vt 0.401707 0.370561
vt 0.321397 0.969879
vt 0.321397 0.952452
vt 0.338250 0.952049
vt 0.338250 0.969477
vt 0.266703 0.369056
vt 0.264102 0.431781
vt 0.257187 0.370234
vt 0.331394 0.090219
vt 0.334326 0.028344
vt 0.341239 0.090738
vt 0.324550 0.202437
vt 0.324683 0.153681
vt 0.340150 0.154497
vt 0.341239 0.202313
vt 0.266703 0.257715
vt 0.266004 0.305486
vt 0.251054 0.307336
vt 0.250549 0.258639
vt 0.414079 0.258274
vt 0.414079 0.308009
vt 0.399116 0.306989
vt 0.397927 0.258165
vt 0.045935 0.028344
vt 0.043831 0.077061
vt 0.028344 0.078286
vt 0.029238 0.028565
vt 0.339334 0.574395
vt 0.332904 0.628604
vt 0.329800 0.574524
vt 0.180497 0.529764
vt 0.178546 0.475238
vt 0.190043 0.528695
vt 0.781740 0.934399
vt 0.781740 0.951854
vt 0.765050 0.951422
vt 0.764639 0.934029
vt 0.486377 0.569941
vt 0.478629 0.623865
vt 0.476868 0.569201
vt 0.620345 0.081781
vt 0.620061 0.028344
vt 0.629861 0.081590
vt 0.617608 0.181649
vt 0.618250 0.138689
vt 0.632789 0.138689
vt 0.633035 0.181649
vt 0.486377 0.470166
vt 0.486153 0.512874
vt 0.470766 0.513534
vt 0.472039 0.470952
vt 0.177629 0.627870
vt 0.176605 0.584958
vt 0.192351 0.585590
vt 0.192351 0.628545
vt 0.340192 0.475370
vt 0.340192 0.518014
vt 0.325450 0.519104
vt 0.324550 0.476527
vt 0.635473 0.970799
vt 0.618453 0.970811
vt 0.618453 0.953268
vt 0.635473 0.953256
vt 0.917456 0.650341
vt 0.917456 0.688828
vt 0.906020 0.688477
vt 0.905322 0.649968
vt 0.904870 0.068311
vt 0.905596 0.030219
vt 0.917477 0.028344
vt 0.917477 0.066321
vt 0.917493 0.125892
vt 0.917493 0.164283
vt 0.905597 0.163440
vt 0.904870 0.124998
vt 0.905058 0.509616
vt 0.905766 0.471333
vt 0.917369 0.470006
vt 0.917369 0.508209
vt 0.846417 0.520900
vt 0.848371 0.569900
vt 0.838961 0.521902
vt 0.841080 0.697135
vt 0.846382 0.649968
vt 0.848635 0.698714
vt 0.847799 0.078834
vt 0.848183 0.127894
vt 0.840145 0.080500
vt 0.842926 0.306214
vt 0.850602 0.258165
vt 0.850210 0.307319
vt 0.839273 0.356261
vt 0.850602 0.357868
vt 0.848183 0.028344
vt 0.836291 0.030150
vt 0.836821 0.747427
vt 0.848635 0.749061
vt 0.848371 0.470006
vt 0.836786 0.471481
vt 0.045691 0.570986
vt 0.040336 0.623816
vt 0.035318 0.571549
vt 0.555501 0.566440
vt 0.550929 0.618404
vt 0.544912 0.565741
vt 0.907289 0.332949
vt 0.924358 0.333362
vt 0.924358 0.351083
vt 0.907289 0.350669
vt 0.634611 0.353461
vt 0.629355 0.406012
vt 0.624037 0.354309
vt 0.109492 0.527738
vt 0.114601 0.474787
vt 0.119864 0.528211
vt 0.102623 0.623984
vt 0.102854 0.582172
vt 0.119147 0.582916
vt 0.119864 0.623906
vt 0.634611 0.258165
vt 0.633498 0.298885
vt 0.616886 0.300218
vt 0.616980 0.258832
vt 0.561766 0.470519
vt 0.561766 0.512107
vt 0.545132 0.511008
vt 0.544126 0.470006
vt 0.045691 0.474705
vt 0.044640 0.516299
vt 0.028344 0.517183
vt 0.028419 0.474687
vt 0.256547 0.089355
vt 0.264804 0.028344
vt 0.266922 0.089971
vt 0.181894 0.089991
vt 0.181365 0.028344
vt 0.192251 0.088707
vt 0.560935 0.954312
vt 0.560935 0.971656
vt 0.544515 0.971411
vt 0.544126 0.954109
vt 0.414261 0.141114
vt 0.403691 0.201478
vt 0.403907 0.139832
vt 0.106900 0.089172
vt 0.111786 0.028344
vt 0.117292 0.088992
vt 0.102623 0.201776
vt 0.103580 0.153373
vt 0.119880 0.153373
vt 0.119918 0.201776
vt 0.414820 0.028344
vt 0.414820 0.076662
vt 0.397927 0.076670
vt 0.398504 0.028475
vt 0.177162 0.200889
vt 0.176605 0.152409
vt 0.193861 0.152987
vt 0.193861 0.201491
vt 0.250549 0.201028
vt 0.251463 0.152611
vt 0.267782 0.152611
vt 0.267863 0.201028
vt 0.767511 0.309154
vt 0.771447 0.258165
vt 0.777806 0.309154
vt 0.695276 0.309376
vt 0.700166 0.258165
vt 0.705739 0.309376
vt 0.907289 0.258165
vt 0.924647 0.258595
vt 0.924647 0.276262
vt 0.907289 0.275831
vt 0.694735 0.520884
vt 0.699283 0.470006
vt 0.705202 0.520884
vt 0.766685 0.079556
vt 0.771846 0.028344
vt 0.776995 0.079425
vt 0.762418 0.172729
vt 0.763407 0.132481
vt 0.779603 0.132275
vt 0.779603 0.172511
vt 0.691396 0.614010
vt 0.692016 0.573689
vt 0.708459 0.573689
vt 0.708844 0.614010
vt 0.691299 0.402479
vt 0.692196 0.362273
vt 0.708633 0.362273
vt 0.708739 0.402479
vt 0.765426 0.402331
vt 0.765481 0.362013
vt 0.781654 0.362013
vt 0.782586 0.402331
vt 0.045171 0.953488
vt 0.045171 0.970986
vt 0.028344 0.970830
vt 0.028344 0.953333
vt 0.852352 0.806538
vt 0.852352 0.854042
vt 0.837714 0.853298
vt 0.836821 0.805748
vt 0.633236 0.848902
vt 0.633236 0.896568
vt 0.619304 0.896095
vt 0.618453 0.848400
vt 0.176605 0.897465
vt 0.176750 0.849653
vt 0.190704 0.849653
vt 0.191411 0.897465
vt 0.764639 0.877342
vt 0.765530 0.829534
vt 0.780133 0.829475
vt 0.780133 0.877280
vt 0.770891 0.709873
vt 0.778822 0.649968
vt 0.780133 0.709695
vt 0.547570 0.734803
vt 0.558076 0.675092
vt 0.556367 0.735702
vt 0.693820 0.731502
vt 0.695265 0.670697
vt 0.702588 0.730842
vt 0.770882 0.529660
vt 0.779641 0.470006
vt 0.780099 0.530789
vt 0.765531 0.591663
vt 0.780099 0.593281
vt 0.691396 0.793927
vt 0.705337 0.793927
vt 0.544126 0.797734
vt 0.558076 0.798084
vt 0.765531 0.772788
vt 0.780133 0.772654
vt 0.470688 0.971645
vt 0.470688 0.954112
vt 0.487439 0.954109
vt 0.487439 0.971642
vt 0.691396 0.895247
vt 0.692180 0.850712
vt 0.705021 0.850615
vt 0.705021 0.895143
vt 0.483613 0.852048
vt 0.483613 0.896576
vt 0.471505 0.896546
vt 0.470766 0.852017
vt 0.041112 0.852297
vt 0.041112 0.896645
vt 0.029078 0.895946
vt 0.028344 0.851555
vt 0.338250 0.851036
vt 0.338250 0.895362
vt 0.325338 0.894329
vt 0.324550 0.849940
vt 0.623168 0.732422
vt 0.631358 0.676513
vt 0.631312 0.733053
vt 0.105055 0.736192
vt 0.114645 0.680671
vt 0.112617 0.737388
vt 0.482436 0.738726
vt 0.482840 0.795329
vt 0.474900 0.739921
vt 0.031898 0.736853
vt 0.038216 0.680504
vt 0.040001 0.736937
vt 0.028344 0.794868
vt 0.041185 0.794868
vt 0.482840 0.680553
vt 0.470766 0.681460
vt 0.102623 0.794560
vt 0.114645 0.795440
vt 0.618453 0.790603
vt 0.631358 0.791713
vt 0.109155 0.314864
vt 0.115945 0.258463
vt 0.118710 0.315433
vt 0.034470 0.315730
vt 0.035708 0.259089
vt 0.044020 0.314137
vt 0.922174 0.567255
vt 0.922174 0.584659
vt 0.905475 0.583640
vt 0.905058 0.566304
vt 0.326419 0.314018
vt 0.338870 0.259125
vt 0.335989 0.316001
vt 0.181293 0.314045
vt 0.190116 0.258178
vt 0.190901 0.314259
vt 0.176605 0.417904
vt 0.177547 0.373219
vt 0.192986 0.373828
vt 0.192986 0.418551
vt 0.324550 0.417624
vt 0.324615 0.373275
vt 0.340390 0.374564
vt 0.340390 0.418683
vt 0.028344 0.418000
vt 0.028433 0.373376
vt 0.044534 0.373249
vt 0.044534 0.417987
vt 0.102623 0.418099
vt 0.102753 0.373341
vt 0.118001 0.373341
vt 0.118801 0.418099
vt 0.254556 0.541221
vt 0.262509 0.488468
vt 0.264522 0.541518
vt 0.402258 0.541705
vt 0.400976 0.488757
vt 0.412109 0.540810
vt 0.119257 0.952534
vt 0.119257 0.969729
vt 0.102986 0.968766
vt 0.102623 0.951612
vt 0.705731 0.125413
vt 0.696832 0.178098
vt 0.695877 0.124754
vt 0.621848 0.522603
vt 0.623185 0.470006
vt 0.631793 0.522452
vt 0.618453 0.619826
vt 0.619265 0.578039
vt 0.634586 0.578039
vt 0.634709 0.619826
vt 0.705731 0.028344
vt 0.705728 0.069849
vt 0.689722 0.070602
vt 0.690543 0.029266
vt 0.398553 0.636991
vt 0.397751 0.595264
vt 0.414079 0.596135
vt 0.414079 0.637941
vt 0.250549 0.637650
vt 0.251495 0.595915
vt 0.267005 0.595542
vt 0.267005 0.637254
vn -0.1088 -0.9888 -0.1022
vn 0.7970 -0.0121 -0.6039
vn 0.5971 -0.1367 0.7905
vn -0.5943 0.1616 -0.7878
vn -0.7941 0.0378 0.6066
vn -0.7591 0.1868 0.6236
vn -0.5840 0.2587 -0.7694
vn 0.6164 -0.0541 0.7856
vn 0.7932 0.0233 -0.6085
vn 0.7988 0.0457 -0.5999
vn 0.6084 -0.0558 0.7917
vn -0.5965 0.1697 -0.7845
vn -0.7868 0.0713 0.6131
vn 0.2837 0.1245 0.9508
vn -0.9539 0.1030 0.2818
vn 0.0037 -0.9997 0.0231
vn 0.9532 0.0970 -0.2864
vn -0.2845 0.0783 -0.9555
vn -0.2856 -0.0109 -0.9583
vn -0.2853 0.0328 -0.9579
vn 0.9582 0.0091 -0.2858
vn 0.9567 0.0522 -0.2864
vn -0.9583 0.0152 0.2853
vn -0.9571 0.0582 0.2839
vn 0.2855 0.0355 0.9577
vn 0.2849 0.0792 0.9553
vn -0.3852 0.0898 0.9185
vn -0.9082 0.1325 -0.3970
vn -0.0715 -0.9974 -0.0045
vn 0.9209 0.0449 0.3873
vn 0.4055 0.0831 -0.9103
vn 0.3757 0.0148 -0.9266
vn 0.3951 -0.0175 -0.9185
vn 0.9280 -0.0254 0.3717
vn 0.9165 -0.0650 0.3948
vn -0.9268 0.0482 -0.3724
vn -0.9031 0.1626 -0.3974
vn -0.3738 0.0071 0.9275
vn -0.3816 0.1128 0.9174
vn -0.4846 -0.0488 0.8734
vn -0.8668 0.1857 -0.4627
vn -0.0915 -0.9923 -0.0833
vn 0.8680 0.0135 0.4964
vn 0.4851 0.2527 -0.8372
vn 0.5344 0.0345 -0.8445
vn 0.5163 0.0578 -0.8544
vn 0.8417 -0.1104 0.5285
vn 0.8669 -0.0480 0.4962
vn -0.8396 0.1348 -0.5263
vn -0.8607 0.1585 -0.4838
vn -0.5161 -0.0487 0.8551
vn -0.4911 0.0703 0.8683
vn -0.0867 -0.9930 0.0805
vn -0.6655 0.0114 -0.7463
vn 0.7409 -0.1104 -0.6625
vn -0.7384 0.1376 0.6602
vn 0.6679 0.0158 0.7441
vn 0.6805 0.1739 0.7118
vn -0.7196 0.2429 0.6505
vn 0.7339 -0.0204 -0.6789
vn -0.6695 0.0484 -0.7412
vn -0.6615 0.0724 -0.7465
vn 0.7408 -0.0225 -0.6713
vn -0.7348 0.1463 0.6624
vn 0.6735 0.0514 0.7374
vn -0.0328 0.0575 0.9978
vn -0.9980 -0.0566 -0.0269
vn 0.1330 -0.9909 -0.0188
vn 0.9651 0.2609 0.0214
vn 0.0150 0.1523 -0.9882
vn -0.0035 0.0643 -0.9979
vn 0.0255 0.0306 -0.9992
vn 0.9833 0.1821 0.0020
vn 0.9905 0.1353 0.0249
vn -0.9878 -0.1559 -0.0021
vn -0.9994 -0.0212 -0.0277
vn 0.0006 -0.0378 0.9993
vn -0.0350 0.0856 0.9957
vn -0.0885 -0.0260 0.9957
vn -0.9892 0.1269 -0.0740
vn -0.0711 -0.9974 -0.0151
vn 0.9937 0.0507 0.0998
vn 0.0928 0.2043 -0.9745
vn 0.1449 0.0158 -0.9893
vn 0.1237 0.0351 -0.9917
vn 0.9878 -0.0586 0.1441
vn 0.9948 -0.0038 0.1017
vn -0.9864 0.0803 -0.1435
vn -0.9902 0.1022 -0.0956
vn -0.1237 -0.0272 0.9920
vn -0.1027 0.0766 0.9918
vn -0.2303 0.1004 0.9679
vn -0.9709 0.0767 -0.2268
vn 0.0322 -0.9995 -0.0020
vn 0.9640 0.1381 0.2272
vn 0.2232 0.1188 -0.9675
vn 0.2277 0.0226 -0.9735
vn 0.2258 0.0698 -0.9717
vn 0.9726 0.0439 0.2283
vn 0.9695 0.0901 0.2280
vn -0.9734 -0.0178 -0.2283
vn -0.9733 0.0285 -0.2278
vn -0.2285 0.0041 0.9735
vn -0.2297 0.0513 0.9719
vn -0.0748 -0.9947 -0.0699
vn 0.9108 -0.0286 -0.4119
vn 0.4089 -0.0792 0.9091
vn -0.4073 0.1012 -0.9077
vn -0.9091 0.0502 0.4134
vn -0.8858 0.1762 0.4292
vn -0.4041 0.1872 -0.8953
vn 0.4282 -0.0072 0.9037
vn 0.9079 0.0007 -0.4192
vn 0.9112 0.0198 -0.4115
vn 0.4187 -0.0085 0.9081
vn -0.4105 0.1084 -0.9054
vn -0.9045 0.0785 0.4191
vn 0.0372 -0.9991 0.0180
vn 0.8117 0.0313 -0.5833
vn 0.5817 0.0491 0.8119
vn -0.5826 -0.0255 -0.8124
vn -0.8125 -0.0082 0.5828
vn -0.8017 0.1291 0.5836
vn -0.5875 0.0673 -0.8064
vn 0.5902 0.1272 0.7972
vn 0.8037 0.0613 -0.5919
vn 0.8058 0.0827 -0.5863
vn 0.5820 0.1252 0.8035
vn -0.5862 -0.0180 -0.8100
vn -0.8105 0.0228 0.5853
vn -0.9370 -0.0428 0.3466
vn -0.3541 0.2084 -0.9117
vn -0.0294 -0.9888 -0.1462
vn 0.3358 -0.0178 0.9417
vn 0.9183 0.2385 -0.3159
vn 0.9559 0.0273 -0.2926
vn 0.9489 0.0502 -0.3114
vn 0.2932 -0.1362 0.9463
vn 0.3341 -0.0767 0.9394
vn -0.2927 0.1594 -0.9428
vn -0.3360 0.1824 -0.9240
vn -0.9491 -0.0415 0.3123
vn -0.9374 0.0718 0.3408
vn 0.9401 0.0008 0.3410
vn -0.3261 0.1468 0.9339
vn -0.0073 -0.9967 0.0804
vn 0.3478 0.0592 -0.9357
vn -0.9175 0.2018 -0.3426
vn -0.9195 -0.0123 -0.3928
vn -0.9275 0.0096 -0.3737
vn 0.3931 -0.0658 -0.9172
vn 0.3518 -0.0037 -0.9361
vn -0.3926 0.0909 0.9152
vn -0.3470 0.1177 0.9304
vn 0.9276 -0.0006 0.3736
vn 0.9293 0.1174 0.3503
g Cube.005_Cube.005_Material
usemtl Material
s off
f 3/1/1 1/2/1 2/3/1 4/4/1
f 3/5/2 8/6/2 5/7/2 1/8/2
f 1/9/3 5/10/3 7/11/3 2/12/3
f 4/13/4 6/14/4 8/15/4 3/16/4
f 2/17/5 7/18/5 6/19/5 4/20/5
f 14/21/6 9/22/6 13/23/6
f 13/24/7 9/25/7 16/26/7
f 10/27/8 9/28/8 14/29/8
f 16/30/9 9/31/9 10/32/9
f 17/33/10 16/30/10 10/32/10 11/34/10
f 11/35/11 10/27/11 14/29/11 15/36/11
f 12/37/12 13/24/12 16/26/12 17/38/12
f 15/39/13 14/21/13 13/23/13 12/40/13
f 27/41/14 18/42/14 26/43/14
f 26/44/15 18/45/15 29/46/15
f 21/47/16 19/48/16 20/49/16 22/50/16
f 23/51/17 18/52/17 27/53/17
f 29/54/18 18/55/18 23/56/18
f 21/57/19 30/58/19 24/59/19 19/60/19
f 30/58/20 29/54/20 23/56/20 24/59/20
f 19/61/21 24/62/21 28/63/21 20/64/21
f 24/62/22 23/51/22 27/53/22 28/63/22
f 22/65/23 25/66/23 30/67/23 21/68/23
f 25/66/24 26/44/24 29/46/24 30/67/24
f 20/69/25 28/70/25 25/71/25 22/72/25
f 28/70/26 27/41/26 26/43/26 25/71/26
f 40/73/27 31/74/27 39/75/27
f 39/76/28 31/77/28 42/78/28
f 34/79/29 32/80/29 33/81/29 35/82/29
f 36/83/30 31/84/30 40/85/30
f 42/86/31 31/87/31 36/88/31
f 34/89/32 43/90/32 37/91/32 32/92/32
f 43/90/33 42/86/33 36/88/33 37/91/33
f 32/93/34 37/94/34 41/95/34 33/96/34
f 37/94/35 36/83/35 40/85/35 41/95/35
f 35/97/36 38/98/36 43/99/36 34/100/36
f 38/98/37 39/76/37 42/78/37 43/99/37
f 33/101/38 41/102/38 38/103/38 35/104/38
f 41/102/39 40/73/39 39/75/39 38/103/39
f 53/105/40 44/106/40 52/107/40
f 52/108/41 44/109/41 55/110/41
f 47/111/42 45/112/42 46/113/42 48/114/42
f 49/115/43 44/116/43 53/117/43
f 55/118/44 44/119/44 49/120/44
f 47/121/45 56/122/45 50/123/45 45/124/45
f 56/122/46 55/118/46 49/120/46 50/123/46
f 45/125/47 50/126/47 54/127/47 46/128/47
f 50/126/48 49/115/48 53/117/48 54/127/48
f 48/129/49 51/130/49 56/131/49 47/132/49
f 51/130/50 52/108/50 55/110/50 56/131/50
f 46/133/51 54/134/51 51/135/51 48/136/51
f 54/134/52 53/105/52 52/107/52 51/135/52
f 59/137/53 57/138/53 58/139/53 60/140/53
f 59/141/54 64/142/54 61/143/54 57/144/54
f 57/145/55 61/146/55 63/147/55 58/148/55
f 60/149/56 62/150/56 64/151/56 59/152/56
f 58/153/57 63/154/57 62/155/57 60/156/57
f 70/157/58 65/158/58 69/159/58
f 69/160/59 65/161/59 72/162/59
f 66/163/60 65/164/60 70/165/60
f 72/166/61 65/167/61 66/168/61
f 73/169/62 72/166/62 66/168/62 67/170/62
f 67/171/63 66/163/63 70/165/63 71/172/63
f 68/173/64 69/160/64 72/162/64 73/174/64
f 71/175/65 70/157/65 69/159/65 68/176/65
f 83/177/66 74/178/66 82/179/66
f 82/180/67 74/181/67 85/182/67
f 77/183/68 75/184/68 76/185/68 78/186/68
f 79/187/69 74/188/69 83/189/69
f 85/190/70 74/191/70 79/192/70
f 77/193/71 86/194/71 80/195/71 75/196/71
f 86/194/72 85/190/72 79/192/72 80/195/72
f 75/197/73 80/198/73 84/199/73 76/200/73
f 80/198/74 79/187/74 83/189/74 84/199/74
f 78/201/75 81/202/75 86/203/75 77/204/75
f 81/202/76 82/180/76 85/182/76 86/203/76
f 76/205/77 84/206/77 81/207/77 78/208/77
f 84/206/78 83/177/78 82/179/78 81/207/78
f 96/209/79 87/210/79 95/211/79
f 95/212/80 87/213/80 98/214/80
f 90/215/81 88/216/81 89/217/81 91/218/81
f 92/219/82 87/220/82 96/221/82
f 98/222/83 87/223/83 92/224/83
f 90/225/84 99/226/84 93/227/84 88/228/84
f 99/226/85 98/222/85 92/224/85 93/227/85
f 88/229/86 93/230/86 97/231/86 89/232/86
f 93/230/87 92/219/87 96/221/87 97/231/87
f 91/233/88 94/234/88 99/235/88 90/236/88
f 94/234/89 95/212/89 98/214/89 99/235/89
f 89/237/90 97/238/90 94/239/90 91/240/90
f 97/238/91 96/209/91 95/211/91 94/239/91
f 109/241/92 100/242/92 108/243/92
f 108/244/93 100/245/93 111/246/93
f 103/247/94 101/248/94 102/249/94 104/250/94
f 105/251/95 100/252/95 109/253/95
f 111/254/96 100/255/96 105/256/96
f 103/257/97 112/258/97 106/259/97 101/260/97
f 112/258/98 111/254/98 105/256/98 106/259/98
f 101/261/99 106/262/99 110/263/99 102/264/99
f 106/262/100 105/251/100 109/253/100 110/263/100
f 104/265/101 107/266/101 112/267/101 103/268/101
f 107/266/102 108/244/102 111/246/102 112/267/102
f 102/269/103 110/270/103 107/271/103 104/272/103
f 110/270/104 109/241/104 108/243/104 107/271/104
f 115/273/105 113/274/105 114/275/105 116/276/105
f 115/277/106 120/278/106 117/279/106 113/280/106
f 113/281/107 117/282/107 119/283/107 114/284/107
f 116/285/108 118/286/108 120/287/108 115/288/108
f 114/289/109 119/290/109 118/291/109 116/292/109
f 126/293/110 121/294/110 125/295/110
f 125/296/111 121/297/111 128/298/111
f 122/299/112 121/300/112 126/301/112
f 128/302/113 121/303/113 122/304/113
f 129/305/114 128/302/114 122/304/114 123/306/114
f 123/307/115 122/299/115 126/301/115 127/308/115
f 124/309/116 125/296/116 128/298/116 129/310/116
f 127/311/117 126/293/117 125/295/117 124/312/117
f 132/313/118 130/314/118 131/315/118 133/316/118
f 132/317/119 137/318/119 134/319/119 130/320/119
f 130/321/120 134/322/120 136/323/120 131/324/120
f 133/325/121 135/326/121 137/327/121 132/328/121
f 131/329/122 136/330/122 135/331/122 133/332/122
f 143/333/123 138/334/123 142/335/123
f 142/336/124 138/337/124 145/338/124
f 139/339/125 138/340/125 143/341/125
f 145/342/126 138/343/126 139/344/126
f 146/345/127 145/342/127 139/344/127 140/346/127
f 140/347/128 139/339/128 143/341/128 144/348/128
f 141/349/129 142/336/129 145/338/129 146/350/129
f 144/351/130 143/333/130 142/335/130 141/352/130
f 156/353/131 147/354/131 155/355/131
f 155/356/132 147/357/132 158/358/132
f 150/359/133 148/360/133 149/361/133 151/362/133
f 152/363/134 147/364/134 156/365/134
f 158/366/135 147/367/135 152/368/135
f 150/369/136 159/370/136 153/371/136 148/372/136
f 159/370/137 158/366/137 152/368/137 153/371/137
f 148/373/138 153/374/138 157/375/138 149/376/138
f 153/374/139 152/363/139 156/365/139 157/375/139
f 151/377/140 154/378/140 159/379/140 150/380/140
f 154/378/141 155/356/141 158/358/141 159/379/141
f 149/381/142 157/382/142 154/383/142 151/384/142
f 157/382/143 156/353/143 155/355/143 154/383/143
f 169/385/144 160/386/144 168/387/144
f 168/388/145 160/389/145 171/390/145
f 163/391/146 161/392/146 162/393/146 164/394/146
f 165/395/147 160/396/147 169/397/147
f 171/398/148 160/399/148 165/400/148
f 163/401/149 172/402/149 166/403/149 161/404/149
f 172/402/150 171/398/150 165/400/150 166/403/150
f 161/405/151 166/406/151 170/407/151 162/408/151
f 166/406/152 165/395/152 169/397/152 170/407/152
f 164/409/153 167/410/153 172/411/153 163/412/153
f 167/410/154 168/388/154 171/390/154 172/411/154
f 162/413/155 170/414/155 167/415/155 164/416/155
f 170/414/156 169/385/156 168/387/156 167/415/156
