# Blender v2.93.0 OBJ File: 'Elderhex_Land.blend'
# www.blender.org
mtllib Elderhex_Land.mtl
o Plane
v -9.997276 3.120413 -5.399998
v -10.000001 0.614299 -1.111111
v -10.000001 1.022345 1.111112
v 10.000001 1.881699 7.777779
v 10.000001 1.126908 5.555557
v 10.000001 -0.858776 3.333334
v -7.471165 1.306193 10.000483
v -0.000000 -0.858776 10.000001
v 2.500000 1.126907 10.000001
v 7.529651 1.887165 7.804375
v 4.925265 1.126624 7.659857
v 2.493962 1.123112 7.843198
v 0.000000 -0.858776 7.777779
v -5.000000 -0.858776 7.777779
v -7.500001 1.576810 7.777779
v 7.037025 1.169428 5.616855
v 5.050841 1.088282 5.514653
v 2.500000 -0.858776 5.555556
v -4.894207 -0.034722 5.335042
v -7.500001 0.753008 5.555556
v 5.000000 -0.858776 3.333334
v -2.514158 -0.854670 3.370551
v -5.698410 0.227797 3.283782
v 7.500001 -0.858776 1.111111
v 0.042831 -0.858068 1.108613
v -2.500000 0.919040 1.111111
v 5.000000 0.000000 -1.111111
v 0.000000 0.000000 -1.111111
v 7.500001 2.554957 -3.333334
v 4.970872 2.516617 -3.345646
v 2.497258 0.001929 -3.245948
v -2.568938 -0.008604 -3.514904
v -5.000000 0.919040 -3.333334
v 5.000000 2.554957 -5.555556
v 2.500000 0.000000 -5.555556
v -5.000000 3.370115 -5.555556
v 2.496653 2.552526 -7.845397
v 0.000000 0.000000 -7.777779
v -7.500001 7.239060 -7.777779
v -10.000001 1.305600 10.000001
v 10.000001 1.881699 10.000001
v -10.000001 7.239060 -10.000001
v -10.000001 0.818322 0.000000
v -10.000001 0.753008 3.333334
v 10.003107 -0.019702 1.130698
v 10.000001 2.554957 -3.333334
v -10.000001 1.576810 7.777780
v -10.000001 0.753008 5.555556
v -8.750001 1.073819 -1.111111
v -10.009245 0.635178 -3.251312
v -10.000001 7.239060 -7.777779
v -5.021644 -0.858352 9.999889
v 5.000000 1.126907 10.000001
v 7.500002 1.881699 10.000001
v 10.000001 3.333108 -10.000001
v 7.500001 3.333108 -10.000001
v 5.000000 2.554957 -10.000001
v -0.000000 0.000000 -10.000001
v -4.999998 3.370111 -10.000001
v -6.250001 0.359017 7.777779
v 3.750000 0.134066 5.555556
v 0.552386 -0.852183 6.049107
v -2.514012 -0.857642 6.214965
v 8.420325 -0.868244 3.319766
v 3.052386 -0.852183 3.826885
v 8.750001 -0.429388 1.111111
v -1.250000 0.030132 1.111111
v -5.424958 0.912717 1.397921
v -7.165940 0.991161 1.474385
v 3.750000 0.000000 -1.111111
v 3.333334 -0.000000 -1.111111
v -1.250000 0.459520 -1.111111
v -6.250001 1.226190 -1.111111
v 5.092507 2.400927 -3.198712
v -0.209362 0.000000 -3.145618
v -3.750000 0.459520 -3.333334
v 10.000001 3.333108 -5.555556
v 3.750000 1.277478 -5.555556
v -2.500000 -0.000000 -5.185186
v -3.750000 1.685058 -5.555556
v -5.938448 3.368165 -5.561208
v 5.000000 2.554957 -7.037038
v 4.166667 2.554957 -7.777779
v -2.500000 0.000000 -10.000001
v -5.000001 3.370116 -7.407409
v -6.250001 5.304588 -7.777779
v -7.500001 5.304588 -6.666667
v -5.000000 3.370115 -6.666667
v 0.548200 0.007232 -6.045970
v 2.500000 1.277478 -6.666667
v -7.172706 3.448552 -5.597930
v -5.000000 2.144578 -4.444445
v 5.000000 2.554957 -4.444445
v 7.517952 3.335943 -5.577206
v -7.498717 1.533323 -3.358357
v -4.831753 0.910394 -1.905235
v -2.500000 0.459520 -2.222223
v 2.500000 0.000000 -2.222223
v 9.999343 0.015232 -1.123527
v -7.589117 1.499591 -1.194261
v -5.267497 0.925414 0.630142
v -2.292574 0.918036 -0.892861
v 8.225017 -0.002441 -1.105804
v -4.022927 0.153437 2.453081
v -2.500000 0.030132 2.222223
v -7.506015 0.753879 3.295700
v -0.211910 -0.858776 3.139354
v -7.500001 1.164909 6.666667
v -5.000000 -0.429388 6.666667
v -2.927029 -0.855190 7.397203
v 2.500000 0.134066 6.666667
v 5.000000 1.126907 6.666667
v -7.500002 7.239060 -10.000001
v 2.500000 2.554957 -10.000001
v 8.750001 -0.644082 2.222222
v 8.750001 -0.214694 -0.000000
v -6.250000 4.337351 -6.666667
v 1.250000 0.638739 -6.666667
v 3.750000 1.916218 -6.666667
v -8.750001 2.221967 -4.444445
v -3.750000 1.072289 -4.444445
v 6.250001 2.749495 -4.444445
v -3.750000 0.689280 -2.222222
v -1.250000 0.229760 -2.222222
v 3.750000 0.638739 -2.222222
v -8.750001 1.048082 0.000000
v -1.250000 0.244826 0.000000
v -1.250000 -0.414322 2.222222
v 3.750000 -0.362355 4.444445
v -6.250000 0.367761 6.666667
v 1.250000 -0.362355 6.666667
v 3.750000 0.630487 6.666667
v 6.250001 1.315605 6.666667
vt 0.353008 0.745720
vt 0.217023 0.773404
vt 0.310054 0.689867
vt 0.859660 0.451920
vt 0.782714 0.396617
vt 0.861058 0.368450
vt 0.727034 0.450518
vt 0.723674 0.412396
vt 0.753094 0.409245
vt 0.533711 0.645684
vt 0.447873 0.626635
vt 0.501970 0.588432
vt 0.844513 0.504030
vt 0.831628 0.580310
vt 0.722019 0.471623
vt 0.776087 0.552456
vt 0.854644 0.685017
vt 0.802851 0.639694
vt 0.830155 0.633289
vt 0.888234 0.734609
vt 0.776267 0.647250
vt 0.178370 0.598759
vt 0.168477 0.620159
vt 0.150020 0.570638
vt 0.098500 0.563327
vt 0.152851 0.535374
vt 0.227347 0.661938
vt 0.190248 0.648034
vt 0.206720 0.626881
vt 0.258241 0.634192
vt 0.916348 0.575805
vt 0.831662 0.600586
vt 0.928672 0.383540
vt 0.991144 0.380189
vt 0.989964 0.450617
vt 0.927765 0.453912
vt 0.928214 0.686051
vt 0.929278 0.724981
vt 0.891429 0.685534
vt 0.193291 0.456004
vt 0.109261 0.459216
vt 0.144092 0.427934
vt 0.076962 0.314553
vt 0.024928 0.257646
vt 0.121606 0.272550
vt 0.142123 0.300242
vt 0.157884 0.333900
vt 0.280825 0.494023
vt 0.237522 0.438469
vt 0.314355 0.571075
vt 0.303176 0.591431
vt 0.286005 0.542954
vt 0.594006 0.564236
vt 0.502881 0.532248
vt 0.558712 0.495249
vt 0.097222 0.244605
vt 0.120122 0.223782
vt 0.430718 0.173555
vt 0.414735 0.216193
vt 0.370489 0.206939
vt 0.180992 0.303219
vt 0.208408 0.379321
vt 0.518461 0.312428
vt 0.525438 0.367069
vt 0.494522 0.331939
vt 0.207406 0.189676
vt 0.177670 0.220251
vt 0.164887 0.133417
vt 0.121371 0.175181
vt 0.464305 0.129271
vt 0.496407 0.180629
vt 0.558844 0.244959
vt 0.522428 0.263978
vt 0.498465 0.229256
vt 0.784284 0.300452
vt 0.771554 0.146239
vt 0.799465 0.231950
vt 0.537205 0.141389
vt 0.504652 0.088953
vt 0.862845 0.158227
vt 0.860391 0.085324
vt 0.787825 0.089168
vt 0.854842 0.268897
vt 0.859819 0.310764
vt 0.819858 0.267067
vt 0.606857 0.108902
vt 0.617826 0.141523
vt 0.578817 0.128101
vt 0.911044 0.153006
vt 0.883238 0.193345
vt 0.925352 0.237061
vt 0.886532 0.232035
vt 0.924272 0.304612
vt 0.893120 0.309417
vt 0.889826 0.270726
vt 0.646259 0.069197
vt 0.567724 0.078505
vt 0.973243 0.149712
vt 0.899490 0.069370
vt 0.975604 0.008856
vt 0.913404 0.012150
vt 0.987599 0.234047
vt 0.986419 0.304475
vt 0.720941 0.658907
vt 0.747199 0.591553
vt 0.769919 0.762362
vt 0.052159 0.604946
vt 0.122256 0.661876
vt 0.260326 0.828959
vt 0.781924 0.441308
vt 0.720905 0.374175
vt 0.663307 0.383839
vt 0.694254 0.415547
vt 0.664339 0.453906
vt 0.789469 0.596075
vt 0.622192 0.609752
vt 0.479170 0.684199
vt 0.718851 0.537009
vt 0.008856 0.549392
vt 0.506223 0.742638
vt 0.500772 0.705844
vt 0.533265 0.701911
vt 0.533265 0.749660
vt 0.188144 0.577262
vt 0.223192 0.605727
vt 0.483060 0.701911
vt 0.483060 0.749660
vt 0.456018 0.742638
vt 0.450566 0.705844
vt 0.879976 0.541776
vt 0.933755 0.520793
vt 0.876421 0.640728
vt 0.922688 0.648168
vt 0.236307 0.534006
vt 0.281411 0.613382
vt 0.326233 0.620350
vt 0.305103 0.641264
vt 0.347885 0.648127
vt 0.070751 0.216581
vt 0.156625 0.376317
vt 0.175867 0.403971
vt 0.114213 0.369473
vt 0.131045 0.397003
vt 0.220689 0.410939
vt 0.195110 0.431625
vt 0.257655 0.514833
vt 0.302477 0.521801
vt 0.510802 0.485517
vt 0.542842 0.466623
vt 0.096061 0.195881
vt 0.199533 0.276791
vt 0.250198 0.341789
vt 0.185784 0.258485
vt 0.392457 0.235831
vt 0.449831 0.318262
vt 0.485610 0.282509
vt 0.495231 0.380744
vt 0.470583 0.351450
vt 0.448475 0.215525
vt 0.526972 0.437997
vt 0.646532 0.514103
vt 0.546789 0.293251
vt 0.573005 0.299856
vt 0.722605 0.272731
vt 0.211228 0.091797
vt 0.254531 0.147352
vt 0.847664 0.226729
vt 0.606985 0.200263
vt 0.266208 0.050621
vt 0.309511 0.106176
vt 0.282021 0.126764
vt 0.516621 0.068530
vt 0.528591 0.048108
vt 0.547719 0.098316
vt 0.894006 0.345953
vt 0.309705 0.008856
vt 0.353016 0.064403
vt 0.573455 0.008849
vt 0.370719 0.706247
vt 0.432855 0.701911
vt 0.432855 0.772349
vt 0.370719 0.776685
vt 0.664244 0.549818
vt 0.165559 0.717431
vn -0.0005 0.9857 0.1683
vn -0.1503 0.9886 0.0000
vn -0.1173 0.9841 0.1333
vn 0.0005 0.8635 -0.5043
vn -0.0592 0.9575 -0.2821
vn -0.0367 0.8869 -0.4605
vn -0.2086 0.9654 0.1564
vn -0.2714 0.9487 0.1621
vn -0.2162 0.9528 0.2131
vn -0.0005 0.8280 0.5607
vn -0.0266 0.8392 0.5432
vn -0.0351 0.6033 0.7967
vn 0.0597 0.6592 0.7496
vn 0.0006 0.8657 0.5004
vn 0.2404 0.5376 0.8082
vn 0.7579 0.6257 0.1845
vn 0.6945 0.6989 0.1708
vn 0.4837 0.7681 0.4195
vn 0.4058 0.9124 0.0530
vn 0.7915 0.6039 0.0932
vn -0.3392 0.6888 0.6406
vn -0.3711 0.8825 0.2889
vn -0.4592 0.7306 0.5052
vn -0.3344 0.9402 0.0652
vn -0.1587 0.9748 0.1567
vn -0.3302 0.9379 0.1063
vn -0.1075 0.9724 0.2068
vn -0.4124 0.7917 0.4507
vn -0.4733 0.8773 0.0797
vn -0.0505 0.9149 0.4006
vn 0.1928 0.7602 0.6203
vn -0.1164 0.9846 -0.1304
vn -0.1468 0.9891 -0.0001
vn 0.0011 1.0000 0.0012
vn -0.0001 0.9865 -0.1635
vn 0.3543 0.9227 0.1517
vn 0.2555 0.9661 -0.0362
vn 0.5842 0.7062 0.4001
vn 0.0507 0.9974 -0.0500
vn -0.2748 0.8991 0.3408
vn -0.0739 0.9949 0.0682
vn 0.2130 0.9764 0.0348
vn 0.1813 0.9818 -0.0555
vn -0.1196 0.9402 0.3190
vn 0.1751 0.9737 0.1455
vn -0.1438 0.8036 0.5776
vn -0.3875 0.8872 0.2505
vn -0.4170 0.7760 0.4732
vn -0.0344 0.8438 0.5355
vn -0.0606 0.8320 0.5515
vn -0.3247 0.9458 -0.0085
vn -0.1686 0.9854 0.0247
vn 0.0625 0.9841 0.1661
vn 0.0649 0.9970 0.0415
vn 0.2370 0.9680 -0.0829
vn 0.4945 0.8368 0.2348
vn 0.2207 0.9566 0.1901
vn 0.4827 0.8573 0.1790
vn 0.1353 0.9877 0.0779
vn -0.0012 0.9981 0.0614
vn -0.0270 0.9988 0.0400
vn 0.2500 0.9527 0.1728
vn 0.1715 0.9520 0.2533
vn 0.2105 0.8177 0.5358
vn 0.1666 0.8459 0.5066
vn -0.0507 0.9365 -0.3469
vn 0.0916 0.9913 0.0942
vn -0.1278 0.9814 -0.1427
vn 0.3279 0.9424 0.0659
vn 0.1743 0.9778 -0.1160
vn -0.1304 0.9829 -0.1300
vn 0.1157 0.9920 0.0493
vn -0.5108 0.7894 -0.3405
vn -0.2430 0.8872 -0.3921
vn -0.3869 0.8116 -0.4377
vn 0.3553 0.9261 0.1271
vn 0.0558 0.9952 0.0804
vn 0.3782 0.8939 0.2405
vn -0.2819 0.9578 -0.0555
vn -0.3946 0.8087 -0.4360
vn -0.3119 0.9188 -0.2418
vn -0.2887 0.7782 -0.5577
vn -0.2020 0.9741 -0.1011
vn -0.2967 0.9470 -0.1232
vn -0.3375 0.8592 -0.3846
vn 0.3697 0.9289 0.0194
vn 0.6549 0.7553 0.0243
vn -0.3291 0.9443 0.0004
vn -0.3291 0.9443 -0.0003
vn -0.1465 0.9892 0.0022
vn 0.8220 0.5695 0.0000
vn 0.7714 0.5705 0.2817
vn 0.4493 0.8934 -0.0003
vn -0.3877 0.9218 -0.0000
vn -0.3876 0.9218 0.0001
vn 0.0000 1.0000 0.0000
vn -0.0565 0.9748 -0.2156
vn -0.1084 0.9764 0.1867
vn -0.1972 0.9653 0.1711
vn -0.0641 0.8777 0.4749
vn 0.4922 0.6720 0.5532
vn 0.3991 0.8144 0.4212
vn -0.3781 0.8785 0.2920
vn -0.6464 0.7306 0.2198
vn -0.1210 0.7027 0.7011
vn 0.3562 0.6829 0.6377
vn 0.3006 0.9002 0.3149
vn -0.3583 0.9300 0.0818
vn -0.4585 0.8863 0.0652
vn -0.1535 0.9689 0.1941
vn -0.3060 0.9514 -0.0326
vn 0.2045 0.9483 -0.2424
vn 0.1798 0.9413 -0.2857
vn 0.3415 0.9399 0.0021
vn 0.1899 0.9601 -0.2052
vn -0.2161 0.9663 0.1399
vn -0.1440 0.8808 0.4509
vn -0.1588 0.9858 -0.0537
vn 0.0784 0.9716 0.2231
vn 0.2555 0.9260 0.2779
vn 0.3247 0.8712 0.3681
vn -0.0001 0.9843 -0.1765
vn -0.2691 0.9140 -0.3036
vn -0.0001 0.9932 -0.1166
vn 0.3315 0.9398 -0.0833
vn 0.2687 0.9311 -0.2465
vn 0.5264 0.8502 0.0009
vn -0.1668 0.9727 -0.1610
vn -0.0001 0.9926 0.1210
vn 0.3728 0.9232 0.0939
vn 0.4781 0.8783 0.0000
usemtl Material.001
s 1
f 77/1/1 56/2/2 94/3/3
f 5/4/4 64/5/5 16/6/6
f 45/7/7 66/8/8 115/9/9
f 46/10/10 94/11/3 29/12/11
f 1/13/12 91/14/13 51/15/14
f 87/16/15 51/15/14 91/14/13
f 80/17/16 88/18/17 36/19/18
f 79/20/19 85/21/20 80/17/16
f 90/22/21 37/23/22 118/24/23
f 118/24/23 38/25/24 89/26/25
f 82/27/26 83/28/27 119/29/28
f 94/3/3 82/27/26 34/30/29
f 95/31/30 81/32/31 91/14/13
f 10/33/32 54/34/33 41/35/34 4/36/35
f 76/37/36 32/38/37 121/39/38
f 75/40/39 79/41/19 32/42/37
f 95/43/30 50/44/40 100/45/41
f 73/46/42 95/43/30 100/45/41
f 96/47/43 95/43/30 73/46/42
f 71/48/44 75/40/39 28/49/45
f 74/50/46 30/51/47 125/52/48
f 103/53/49 74/54/46 27/55/50
f 100/45/41 49/56/51 126/57/52
f 69/58/53 101/59/54 100/60/41
f 101/61/54 96/47/43 73/46/42
f 102/62/55 96/47/43 101/61/54
f 67/63/56 25/64/57 127/65/58
f 106/66/59 69/67/53 44/68/60
f 69/67/53 3/69/61 44/68/60
f 106/70/59 23/71/62 69/58/53
f 22/72/63 105/73/64 104/74/65
f 21/75/66 107/76/67 65/77/68
f 64/5/5 107/76/67 21/75/66
f 19/78/69 106/70/59 20/79/70
f 22/72/63 23/71/62 19/78/69
f 62/80/71 107/76/67 63/81/72
f 107/76/67 22/82/63 63/81/72
f 61/83/73 17/84/74 129/85/75
f 129/85/75 21/75/66 65/77/68
f 14/86/76 110/87/77 109/88/78
f 13/89/79 131/90/80 62/80/71
f 12/91/81 111/92/82 131/90/80
f 11/93/83 112/94/84 132/95/85
f 52/96/86 14/86/76 60/97/87
f 8/98/88 110/99/77 52/100/86
f 110/99/77 14/101/76 52/100/86
f 9/102/89 12/91/81 8/98/88
f 12/91/81 13/89/79 8/98/88
f 11/93/83 12/91/81 9/102/89
f 10/33/32 11/93/83 53/103/90
f 85/21/20 59/104/91 86/105/92
f 85/21/20 84/106/93 59/104/91
f 37/23/22 58/107/94 38/25/24
f 114/108/95 58/107/94 37/23/22
f 37/23/22 83/28/27 114/108/95
f 56/2/2 77/1/1 55/109/96
f 115/9/9 64/5/5 6/110/97 45/7/7
f 10/33/32 4/36/35 5/4/4
f 10/33/32 5/4/4 16/6/6
f 5/4/4 6/110/97 64/5/5
f 24/111/98 64/5/5 115/9/9 66/8/8
f 103/112/49 24/111/98 66/8/8 116/113/99
f 116/113/99 66/8/8 45/7/7 99/114/100
f 117/115/101 87/16/15 91/14/13 81/32/31
f 116/113/99 99/114/100 103/112/49
f 99/116/100 46/10/10 29/12/11
f 46/10/10 77/117/1 94/11/3
f 87/16/15 39/118/102 51/15/14
f 88/18/17 117/115/101 81/32/31 36/19/18
f 85/21/20 86/105/92 117/115/101 88/18/17
f 86/105/92 39/118/102 87/16/15 117/115/101
f 84/119/93 79/41/19 89/26/25 38/25/24
f 80/17/16 85/21/20 88/18/17
f 79/20/19 84/106/93 85/21/20
f 118/120/23 89/121/25 35/122/103 90/123/21
f 90/22/21 35/124/103 78/125/104 119/29/28
f 118/24/23 37/23/22 38/25/24
f 119/29/28 78/125/104 34/30/29 82/27/26
f 37/126/22 90/127/21 119/128/28 83/129/27
f 120/130/105 50/131/40 95/31/30 91/14/13
f 50/131/40 120/130/105 1/13/12
f 92/132/106 81/32/31 95/31/30 33/133/107
f 120/130/105 91/14/13 1/13/12
f 121/39/38 92/132/106 33/133/107 76/37/36
f 81/32/31 92/132/106 36/19/18
f 79/20/19 80/17/16 121/39/38 32/38/37
f 80/17/16 36/19/18 92/132/106 121/39/38
f 89/26/25 75/40/39 31/134/108 35/124/103
f 75/40/39 89/26/25 79/41/19
f 78/125/104 30/51/47 93/135/109 34/30/29
f 78/125/104 35/124/103 31/134/108 30/51/47
f 93/135/109 30/51/47 74/136/46 122/137/110
f 122/137/110 74/136/46 29/138/11 94/3/3
f 34/30/29 93/135/109 122/137/110 94/3/3
f 50/44/40 2/139/111 49/56/51 100/45/41
f 123/140/112 96/47/43 102/62/55 97/141/113
f 95/43/30 96/47/43 33/142/107
f 76/143/36 123/140/112 97/141/113 32/42/37
f 33/142/107 96/47/43 123/140/112 76/143/36
f 97/141/113 102/62/55 72/144/114 124/145/115
f 124/145/115 72/144/114 28/49/45 75/40/39
f 32/42/37 97/141/113 124/145/115 75/40/39
f 98/146/116 71/48/44 70/147/117 125/52/48
f 71/48/44 98/146/116 75/40/39
f 98/146/116 31/134/108 75/40/39
f 125/148/48 70/149/117 27/55/50 74/54/46
f 31/134/108 98/146/116 125/52/48 30/51/47
f 126/57/52 43/150/118 3/69/61 69/67/53
f 103/53/49 99/116/100 74/54/46
f 99/116/100 29/12/11 74/54/46
f 49/56/51 2/139/111 43/150/118 126/57/52
f 69/67/53 100/45/41 126/57/52
f 101/61/54 68/151/119 26/152/120 102/62/55
f 69/153/53 68/151/119 101/61/54
f 100/60/41 101/59/54 73/154/42
f 127/65/58 102/155/55 26/156/120 67/63/56
f 28/157/45 72/158/114 127/65/58 25/64/57
f 68/159/119 69/58/53 23/71/62 104/74/65
f 102/155/55 127/65/58 72/158/114
f 25/64/57 71/160/44 28/157/45
f 25/64/57 27/55/50 70/149/117
f 25/64/57 70/149/117 71/160/44
f 24/161/98 103/53/49 25/64/57
f 25/64/57 103/53/49 27/55/50
f 26/156/120 68/159/119 104/74/65 105/73/64
f 23/71/62 22/72/63 104/74/65
f 128/162/121 105/73/64 22/72/63 107/163/67
f 25/64/57 67/63/56 128/162/121 107/163/67
f 67/63/56 26/156/120 105/73/64 128/162/121
f 25/164/57 107/76/67 64/5/5 24/111/98
f 44/68/60 48/165/122 20/166/70 106/66/59
f 107/76/67 62/80/71 18/167/123 65/77/68
f 106/70/59 19/78/69 23/71/62
f 63/168/72 22/72/63 19/78/69
f 129/85/75 65/77/68 18/167/123 61/83/73
f 48/165/122 47/169/124 15/170/125 108/171/126
f 129/85/75 17/84/74 21/75/66
f 16/6/6 64/5/5 17/84/74
f 17/84/74 64/5/5 21/75/66
f 108/172/126 15/173/125 60/97/87 130/174/127
f 108/171/126 20/166/70 48/165/122
f 109/88/78 130/174/127 60/97/87 14/86/76
f 20/79/70 108/172/126 130/174/127 19/78/69
f 130/174/127 109/88/78 19/78/69
f 63/168/72 19/78/69 109/88/78 110/87/77
f 63/81/72 110/99/77 13/89/79 62/80/71
f 18/167/123 62/80/71 131/90/80 111/92/82
f 13/89/79 12/91/81 131/90/80
f 132/95/85 111/92/82 12/91/81 11/93/83
f 17/84/74 61/83/73 132/95/85 112/94/84
f 61/83/73 18/167/123 111/92/82 132/95/85
f 133/175/128 112/94/84 11/93/83 10/33/32
f 16/6/6 17/84/74 112/94/84 133/175/128
f 133/175/128 10/33/32 16/6/6
f 47/169/124 40/176/129 7/177/130 15/170/125
f 60/97/87 15/173/125 7/178/130 52/96/86
f 42/179/96 51/180/14 39/181/102 113/182/131
f 8/98/88 13/89/79 110/99/77
f 53/103/90 11/93/83 9/102/89
f 54/34/33 10/33/32 53/103/90
f 113/183/131 39/118/102 86/105/92 59/104/91
f 38/25/24 58/107/94 84/119/93
f 82/27/26 57/184/2 83/28/27
f 83/28/27 57/184/2 114/108/95
f 94/3/3 56/2/2 82/27/26
f 57/184/2 82/27/26 56/2/2
